<svg xmlns="http://www.w3.org/2000/svg" xmlns:xlink="http://www.w3.org/1999/xlink" width="1080" zoomAndPan="magnify" viewBox="0 0 810 1012.49997" height="1350" preserveAspectRatio="xMidYMid meet" version="1.0"><defs><g/><clipPath id="45a2ba2ce2"><path d="M 0.199219 507 L 809.800781 507 L 809.800781 1002 L 0.199219 1002 Z M 0.199219 507 " clip-rule="nonzero"/></clipPath><clipPath id="35b7afe6b2"><rect x="0" width="810" y="0" height="495"/></clipPath><clipPath id="7d721b8dec"><rect x="0" width="810" y="0" height="495"/></clipPath><clipPath id="caa6098e82"><rect x="0" width="463" y="0" height="838"/></clipPath><clipPath id="a5f777dc4e"><rect x="0" width="463" y="0" height="838"/></clipPath></defs><g clip-path="url(#45a2ba2ce2)"><g transform="matrix(1, 0, 0, 1, 0.000000000000000028, 507)"><g clip-path="url(#35b7afe6b2)"><g fill="#9d5977" fill-opacity="1"><g transform="translate(98.490765, 1.834223)"><g><path d="M 600.28125 263.644531 C 600.28125 305.496094 592.496094 340.816406 576.925781 369.605469 C 561.285156 398.527344 539.71875 421.117188 512.230469 437.375 C 485.042969 453.453125 454.269531 463.238281 419.902344 466.734375 L 409.792969 467.761719 L 409.792969 371.976562 L 418.128906 371.207031 C 452.242188 368.058594 478.582031 356.8125 497.152344 337.46875 C 515.597656 318.253906 524.820312 291.6875 524.820312 257.765625 C 524.820312 228.875 518.078125 204.574219 504.59375 184.867188 C 491.863281 166.261719 472 156.957031 445.003906 156.957031 C 416.539062 156.957031 395.25 165.503906 381.136719 182.589844 C 366.109375 200.78125 353.71875 231.277344 343.964844 274.078125 C 329.066406 339.402344 307.113281 388.601562 278.105469 421.671875 C 248.289062 455.664062 207.363281 472.660156 155.332031 472.660156 C 119.238281 472.660156 87.941406 463.28125 61.445312 444.523438 C 35.191406 425.9375 14.867188 400.925781 0.464844 369.480469 C -13.804688 338.320312 -20.9375 303.320312 -20.9375 264.484375 C -20.9375 198.53125 -4.878906 145.40625 27.242188 105.105469 C 59.617188 64.492188 105.058594 40.96875 163.5625 34.53125 L 173.75 33.410156 L 173.75 128.285156 L 166.546875 129.875 C 130.566406 137.8125 102.894531 153.683594 83.53125 177.5 C 64.191406 201.28125 54.523438 230.835938 54.523438 266.164062 C 54.523438 297.199219 62.476562 323.667969 78.378906 345.570312 C 93.617188 366.554688 114.792969 377.046875 141.898438 377.046875 C 174.320312 377.046875 198.851562 367.214844 215.492188 347.550781 C 233.003906 326.855469 247.472656 291.757812 258.894531 242.265625 C 266.890625 207.429688 277.484375 176.671875 290.675781 150 C 304.230469 122.601562 321.984375 101.039062 343.9375 85.3125 C 366.246094 69.335938 394.339844 61.34375 428.210938 61.34375 C 463.753906 61.34375 494.496094 70.589844 520.441406 89.078125 C 546.144531 107.398438 565.914062 132.007812 579.75 162.914062 C 593.4375 193.496094 600.28125 227.070312 600.28125 263.644531 Z M 581.914062 263.644531 C 581.914062 229.6875 575.605469 198.613281 562.984375 170.417969 C 550.511719 142.550781 532.777344 120.421875 509.78125 104.035156 C 487.027344 87.820312 459.835938 79.710938 428.210938 79.710938 C 398.269531 79.710938 373.746094 86.554688 354.632812 100.246094 C 335.167969 114.1875 319.335938 133.488281 307.140625 158.144531 C 294.582031 183.527344 284.46875 212.945312 276.789062 246.398438 C 264.703125 298.78125 248.941406 336.453125 229.511719 359.414062 C 209.207031 383.414062 180 395.414062 141.898438 395.414062 C 108.550781 395.414062 82.421875 382.394531 63.519531 356.359375 C 45.277344 331.242188 36.15625 301.175781 36.15625 266.164062 C 36.15625 226.484375 47.199219 193.066406 69.28125 165.910156 C 91.339844 138.785156 122.441406 120.792969 162.589844 111.9375 L 164.566406 120.90625 L 155.382812 120.90625 L 155.382812 43.660156 L 164.566406 43.660156 L 165.570312 52.789062 C 112.128906 58.667969 70.804688 79.921875 41.605469 116.554688 C 12.15625 153.503906 -2.570312 202.8125 -2.570312 264.484375 C -2.570312 300.652344 4.007812 333.101562 17.164062 361.835938 C 30.195312 390.285156 48.492188 412.851562 72.054688 429.53125 C 95.375 446.039062 123.132812 454.292969 155.332031 454.292969 C 201.816406 454.292969 238.136719 439.382812 264.296875 409.558594 C 291.261719 378.820312 311.847656 332.300781 326.058594 270 C 336.457031 224.359375 350.09375 191.324219 366.976562 170.894531 C 384.765625 149.359375 410.773438 138.589844 445.003906 138.589844 C 478.460938 138.589844 503.375 150.558594 519.753906 174.496094 C 535.375 197.328125 543.1875 225.085938 543.1875 257.765625 C 543.1875 296.613281 532.257812 327.421875 510.402344 350.1875 C 488.671875 372.824219 458.476562 385.929688 419.820312 389.496094 L 418.976562 380.351562 L 428.160156 380.351562 L 428.160156 457.597656 L 418.976562 457.597656 L 418.046875 448.460938 C 449.730469 445.238281 478.011719 436.273438 502.882812 421.566406 C 527.449219 407.035156 546.746094 386.804688 560.769531 360.871094 C 574.867188 334.804688 581.914062 302.394531 581.914062 263.644531 Z M 581.914062 263.644531 "/></g></g></g></g></g><g transform="matrix(1, 0, 0, 1, 0.000000000000000028, 507)"><g clip-path="url(#7d721b8dec)"><g fill="#9d5977" fill-opacity="1"><g transform="translate(98.43101, 1.835395)"><g><path d="M 591.09375 263.640625 C 591.09375 303.941406 583.675781 337.804688 568.84375 365.234375 C 554.007812 392.660156 533.578125 414.070312 507.546875 429.46875 C 481.523438 444.863281 452 454.238281 418.96875 457.59375 L 418.96875 380.34375 C 455.351562 376.988281 483.617188 364.816406 503.765625 343.828125 C 523.921875 322.835938 534 294.148438 534 257.765625 C 534 226.972656 526.722656 200.941406 512.171875 179.671875 C 497.617188 158.410156 475.226562 147.78125 445 147.78125 C 413.65625 147.78125 390.003906 157.429688 374.046875 176.734375 C 358.097656 196.046875 345.085938 227.8125 335.015625 272.03125 C 320.460938 335.84375 299.191406 383.703125 271.203125 415.609375 C 243.210938 447.515625 204.585938 463.46875 155.328125 463.46875 C 121.179688 463.46875 91.65625 454.648438 66.75 437.015625 C 41.84375 419.390625 22.53125 395.601562 8.8125 365.65625 C -4.894531 335.707031 -11.75 301.984375 -11.75 264.484375 C -11.75 200.671875 3.640625 149.453125 34.421875 110.828125 C 65.210938 72.203125 108.59375 49.8125 164.5625 43.65625 L 164.5625 120.90625 C 126.5 129.300781 97.113281 146.234375 76.40625 171.703125 C 55.695312 197.171875 45.34375 228.65625 45.34375 266.15625 C 45.34375 299.1875 53.878906 327.457031 70.953125 350.96875 C 88.023438 374.476562 111.671875 386.234375 141.890625 386.234375 C 177.160156 386.234375 204.03125 375.316406 222.5 353.484375 C 240.96875 331.648438 256.082031 295.265625 267.84375 244.328125 C 275.675781 210.179688 286.03125 180.09375 298.90625 154.0625 C 311.78125 128.039062 328.570312 107.613281 349.28125 92.78125 C 369.988281 77.945312 396.296875 70.53125 428.203125 70.53125 C 461.796875 70.53125 490.765625 79.203125 515.109375 96.546875 C 539.460938 113.898438 558.210938 137.269531 571.359375 166.65625 C 584.515625 196.050781 591.09375 228.378906 591.09375 263.640625 Z M 591.09375 263.640625 "/></g></g></g></g></g></g><g transform="matrix(1, 0, 0, 1, 126, 0)"><g clip-path="url(#caa6098e82)"><g fill="#75485c" fill-opacity="1"><g transform="translate(3.666705, 640.130309)"><g><path d="M 418.921875 -579.34375 L 418.921875 -189.757812 C 418.921875 -178.886719 418.355469 -166.054688 417.214844 -151.269531 C 414.292969 -100.359375 396.890625 -58.96875 365.015625 -27.089844 C 332.996094 4.929688 284.929688 20.9375 220.824219 20.9375 C 164.515625 20.9375 120.210938 4.488281 87.90625 -28.410156 C 55.695312 -61.210938 39.007812 -105.972656 37.835938 -162.699219 L 36.769531 -206.496094 L 127.132812 -206.496094 L 129.238281 -163.335938 C 131.085938 -126.414062 140.472656 -98.976562 157.394531 -81.027344 C 174.054688 -63.359375 198.554688 -54.523438 230.898438 -54.523438 C 261.703125 -54.523438 284.863281 -63.410156 300.386719 -81.1875 C 316.378906 -99.5 325.425781 -124.695312 327.527344 -156.773438 C 328.074219 -164.972656 328.347656 -174.425781 328.347656 -185.136719 L 328.347656 -588.527344 L 418.921875 -588.527344 Z M 400.554688 -579.34375 L 409.738281 -579.34375 L 409.738281 -570.160156 L 337.53125 -570.160156 L 337.53125 -579.34375 L 346.714844 -579.34375 L 346.714844 -185.136719 C 346.714844 -174.019531 346.429688 -164.164062 345.855469 -155.570312 C 343.480469 -119.359375 332.9375 -90.539062 314.222656 -69.105469 C 295.039062 -47.140625 267.265625 -36.15625 230.898438 -36.15625 C 193.269531 -36.15625 164.316406 -46.914062 144.03125 -68.425781 C 124.011719 -89.660156 112.964844 -120.996094 110.894531 -162.441406 L 109.214844 -196.867188 L 118.386719 -197.3125 L 118.386719 -188.128906 L 46.179688 -188.128906 L 46.179688 -197.3125 L 55.359375 -197.535156 L 56.199219 -163.078125 C 57.269531 -111.210938 72.207031 -70.613281 101.011719 -41.277344 C 129.71875 -12.046875 169.65625 2.570312 220.824219 2.570312 C 279.859375 2.570312 323.59375 -11.644531 352.027344 -40.078125 C 380.605469 -68.65625 396.230469 -106.1875 398.902344 -152.675781 C 400.003906 -166.996094 400.554688 -179.355469 400.554688 -189.757812 Z M 400.554688 -579.34375 "/></g></g></g></g></g><g transform="matrix(1, 0, 0, 1, 126, 0)"><g clip-path="url(#a5f777dc4e)"><g fill="#75485c" fill-opacity="1"><g transform="translate(3.666705, 640.130309)"><g><path d="M 409.734375 -579.34375 L 409.734375 -221.65625 C 409.734375 -211.019531 409.734375 -200.382812 409.734375 -189.75 C 409.734375 -179.113281 409.175781 -166.519531 408.0625 -151.96875 C 405.257812 -103.269531 388.742188 -63.804688 358.515625 -33.578125 C 328.296875 -3.359375 282.398438 11.75 220.828125 11.75 C 167.085938 11.75 124.960938 -3.78125 94.453125 -34.84375 C 63.953125 -65.90625 48.140625 -108.585938 47.015625 -162.890625 L 46.171875 -197.3125 L 118.390625 -197.3125 L 120.0625 -162.890625 C 123.976562 -84.523438 160.921875 -45.34375 230.890625 -45.34375 C 264.484375 -45.34375 289.953125 -55.273438 307.296875 -75.140625 C 324.648438 -95.015625 334.445312 -122.023438 336.6875 -156.171875 C 337.25 -164.566406 337.53125 -174.222656 337.53125 -185.140625 C 337.53125 -196.054688 337.53125 -209.070312 337.53125 -224.1875 L 337.53125 -579.34375 Z M 409.734375 -579.34375 "/></g></g></g></g></g></svg>