<svg xmlns="http://www.w3.org/2000/svg" xmlns:xlink="http://www.w3.org/1999/xlink" width="297" zoomAndPan="magnify" viewBox="0 0 222.75 157.5" height="210" preserveAspectRatio="xMidYMid meet" version="1.0"><defs><g/><clipPath id="5a58195ab4"><path d="M 0.226562 81 L 74 81 L 74 125 L 0.226562 125 Z M 0.226562 81 " clip-rule="nonzero"/></clipPath><clipPath id="5202c68b74"><rect x="0" width="74" y="0" height="44"/></clipPath><clipPath id="f9533eafc4"><rect x="0" width="41" y="0" height="88"/></clipPath></defs><g fill="#9d5977" fill-opacity="1"><g transform="translate(53.88367, 118.340709)"><g><path d="M 12.710938 0.851562 C 10.675781 0.851562 8.863281 0.597656 7.273438 0.09375 C 5.671875 -0.410156 4.335938 -1.078125 3.261719 -1.90625 C 2.183594 -2.742188 1.355469 -3.660156 0.777344 -4.664062 L 0.625 -4.929688 L 4.066406 -9.128906 L 5 -9.128906 L 5.128906 -8.933594 C 5.957031 -7.710938 7 -6.734375 8.269531 -6.011719 C 9.53125 -5.289062 11.007812 -4.929688 12.710938 -4.929688 C 14.121094 -4.929688 15.171875 -5.21875 15.863281 -5.789062 C 16.527344 -6.34375 16.859375 -7.113281 16.859375 -8.101562 C 16.859375 -8.707031 16.753906 -9.207031 16.539062 -9.597656 C 16.332031 -9.980469 15.976562 -10.316406 15.472656 -10.601562 C 14.933594 -10.910156 14.195312 -11.175781 13.253906 -11.398438 L 9.570312 -12.242188 C 6.90625 -12.851562 4.914062 -13.871094 3.589844 -15.304688 C 2.25 -16.753906 1.582031 -18.628906 1.582031 -20.929688 C 1.582031 -22.636719 2.011719 -24.144531 2.871094 -25.445312 C 3.726562 -26.746094 4.972656 -27.753906 6.601562 -28.46875 C 8.207031 -29.175781 10.117188 -29.527344 12.335938 -29.527344 C 14.597656 -29.527344 16.542969 -29.226562 18.167969 -28.628906 C 19.8125 -28.019531 21.199219 -27.089844 22.332031 -25.832031 L 22.574219 -25.566406 L 19.425781 -21.253906 L 18.523438 -21.253906 L 18.394531 -21.390625 C 17.625 -22.195312 16.75 -22.796875 15.761719 -23.199219 C 14.769531 -23.601562 13.628906 -23.804688 12.335938 -23.804688 C 10.871094 -23.804688 9.769531 -23.554688 9.035156 -23.054688 C 8.351562 -22.59375 8.011719 -21.957031 8.011719 -21.144531 C 8.011719 -20.367188 8.25 -19.753906 8.726562 -19.304688 C 9.234375 -18.828125 10.148438 -18.445312 11.46875 -18.160156 L 15.230469 -17.375 C 18.113281 -16.769531 20.210938 -15.726562 21.53125 -14.25 C 22.859375 -12.757812 23.523438 -10.828125 23.523438 -8.453125 C 23.523438 -6.582031 23.121094 -4.949219 22.308594 -3.554688 C 21.492188 -2.148438 20.261719 -1.058594 18.625 -0.289062 C 17.007812 0.472656 15.039062 0.851562 12.710938 0.851562 Z M 12.710938 -0.0273438 C 14.90625 -0.0273438 16.753906 -0.378906 18.25 -1.085938 C 19.722656 -1.777344 20.824219 -2.75 21.550781 -3.996094 C 22.28125 -5.253906 22.648438 -6.742188 22.648438 -8.453125 C 22.648438 -10.605469 22.054688 -12.339844 20.875 -13.664062 C 19.683594 -14.996094 17.742188 -15.949219 15.050781 -16.515625 L 11.285156 -17.300781 C 9.804688 -17.621094 8.75 -18.074219 8.121094 -18.667969 C 7.460938 -19.289062 7.132812 -20.117188 7.132812 -21.144531 C 7.132812 -22.265625 7.601562 -23.148438 8.539062 -23.78125 C 9.425781 -24.382812 10.691406 -24.683594 12.335938 -24.683594 C 13.742188 -24.683594 14.992188 -24.460938 16.09375 -24.011719 C 17.195312 -23.5625 18.175781 -22.890625 19.03125 -21.996094 L 18.710938 -21.691406 L 18.710938 -22.132812 L 19.203125 -22.132812 L 19.203125 -21.691406 L 18.847656 -21.953125 L 21.652344 -25.796875 L 22.007812 -25.539062 L 21.679688 -25.242188 C 20.644531 -26.394531 19.371094 -27.246094 17.863281 -27.804688 C 16.335938 -28.367188 14.496094 -28.648438 12.335938 -28.648438 C 10.242188 -28.648438 8.445312 -28.320312 6.953125 -27.664062 C 5.484375 -27.019531 4.367188 -26.121094 3.601562 -24.960938 C 2.839844 -23.804688 2.460938 -22.460938 2.460938 -20.929688 C 2.460938 -18.859375 3.050781 -17.183594 4.234375 -15.902344 C 5.4375 -14.601562 7.28125 -13.667969 9.769531 -13.097656 L 13.460938 -12.253906 C 14.480469 -12.007812 15.296875 -11.714844 15.910156 -11.367188 C 16.554688 -10.996094 17.023438 -10.546875 17.3125 -10.015625 C 17.597656 -9.492188 17.738281 -8.855469 17.738281 -8.101562 C 17.738281 -6.839844 17.300781 -5.84375 16.421875 -5.113281 C 15.570312 -4.40625 14.332031 -4.050781 12.710938 -4.050781 C 10.855469 -4.050781 9.226562 -4.449219 7.832031 -5.246094 C 6.445312 -6.039062 5.304688 -7.105469 4.402344 -8.445312 L 4.765625 -8.6875 L 4.765625 -8.25 L 4.277344 -8.25 L 4.277344 -8.6875 L 4.617188 -8.410156 L 1.496094 -4.605469 L 1.15625 -4.882812 L 1.539062 -5.101562 C 2.058594 -4.199219 2.8125 -3.367188 3.800781 -2.601562 C 4.789062 -1.835938 6.035156 -1.21875 7.535156 -0.742188 C 9.042969 -0.265625 10.769531 -0.0273438 12.710938 -0.0273438 Z M 12.710938 -0.0273438 "/></g></g></g><g fill="#9d5977" fill-opacity="1"><g transform="translate(78.514004, 118.340709)"><g><path d="M 12.613281 0.851562 C 10.445312 0.851562 8.527344 0.398438 6.851562 -0.507812 C 5.167969 -1.417969 3.851562 -2.753906 2.90625 -4.519531 C 1.972656 -6.269531 1.503906 -8.367188 1.503906 -10.808594 C 1.503906 -13.261719 1.972656 -15.363281 2.90625 -17.113281 C 3.851562 -18.878906 5.160156 -20.214844 6.832031 -21.128906 C 8.492188 -22.03125 10.386719 -22.484375 12.515625 -22.484375 C 14.871094 -22.484375 16.816406 -22.054688 18.34375 -21.1875 C 19.898438 -20.308594 21.011719 -18.996094 21.691406 -17.242188 L 21.8125 -16.925781 L 17.695312 -13.976562 L 16.855469 -13.976562 L 16.738281 -14.242188 C 16.328125 -15.183594 15.800781 -15.882812 15.15625 -16.332031 C 14.519531 -16.777344 13.636719 -16.996094 12.515625 -16.996094 C 11.085938 -16.996094 9.976562 -16.507812 9.1875 -15.53125 C 8.375 -14.527344 7.972656 -12.953125 7.972656 -10.808594 C 7.972656 -8.6875 8.382812 -7.125 9.207031 -6.113281 C 10.007812 -5.128906 11.144531 -4.636719 12.613281 -4.636719 C 13.6875 -4.636719 14.597656 -4.921875 15.332031 -5.496094 C 16.078125 -6.074219 16.609375 -6.910156 16.9375 -8.011719 L 17.023438 -8.292969 L 17.863281 -8.375 L 22.15625 -6.019531 L 22.054688 -5.679688 C 21.480469 -3.757812 20.414062 -2.191406 18.855469 -0.976562 C 17.292969 0.242188 15.210938 0.851562 12.613281 0.851562 Z M 12.613281 -0.0273438 C 15.007812 -0.0273438 16.910156 -0.574219 18.3125 -1.671875 C 19.726562 -2.769531 20.691406 -4.191406 21.214844 -5.933594 L 21.632812 -5.804688 L 21.421875 -5.421875 L 17.558594 -7.539062 L 17.769531 -7.925781 L 17.8125 -7.488281 L 17.398438 -7.449219 L 17.359375 -7.886719 L 17.78125 -7.761719 C 17.398438 -6.480469 16.765625 -5.492188 15.871094 -4.800781 C 14.976562 -4.105469 13.890625 -3.757812 12.613281 -3.757812 C 10.863281 -3.757812 9.503906 -4.359375 8.523438 -5.558594 C 7.570312 -6.730469 7.09375 -8.480469 7.09375 -10.808594 C 7.09375 -13.160156 7.5625 -14.917969 8.503906 -16.085938 C 9.46875 -17.28125 10.804688 -17.875 12.515625 -17.875 C 13.820312 -17.875 14.871094 -17.601562 15.660156 -17.050781 C 16.4375 -16.507812 17.066406 -15.6875 17.546875 -14.59375 L 17.144531 -14.417969 L 17.144531 -14.855469 L 17.554688 -14.855469 L 17.554688 -14.417969 L 17.300781 -14.773438 L 21.027344 -17.441406 L 21.28125 -17.085938 L 20.871094 -16.925781 C 20.269531 -18.480469 19.28125 -19.648438 17.910156 -20.421875 C 16.519531 -21.210938 14.71875 -21.605469 12.515625 -21.605469 C 10.535156 -21.605469 8.78125 -21.191406 7.25 -20.355469 C 5.734375 -19.527344 4.542969 -18.308594 3.683594 -16.699219 C 2.816406 -15.078125 2.382812 -13.113281 2.382812 -10.808594 C 2.382812 -8.515625 2.816406 -6.554688 3.683594 -4.933594 C 4.542969 -3.324219 5.738281 -2.105469 7.269531 -1.277344 C 8.8125 -0.445312 10.59375 -0.0273438 12.613281 -0.0273438 Z M 12.613281 -0.0273438 "/></g></g></g><g fill="#9d5977" fill-opacity="1"><g transform="translate(100.810732, 118.340709)"><g><path d="M 2.679688 0 L 2.679688 -30.761719 L 8.992188 -30.761719 L 8.992188 -18.808594 L 8.550781 -18.808594 L 8.632812 -19.242188 L 9.046875 -19.164062 L 8.964844 -18.730469 L 8.601562 -18.976562 C 9.359375 -20.097656 10.292969 -20.960938 11.398438 -21.570312 C 12.511719 -22.179688 13.84375 -22.484375 15.398438 -22.484375 C 17.914062 -22.484375 19.816406 -21.757812 21.097656 -20.308594 C 22.363281 -18.871094 22.996094 -16.742188 22.996094 -13.925781 L 22.996094 0.4375 L 16.683594 0.4375 L 16.683594 -13.238281 C 16.683594 -14.605469 16.425781 -15.582031 15.910156 -16.164062 C 15.410156 -16.734375 14.605469 -17.015625 13.496094 -17.015625 C 12.109375 -17.015625 11.015625 -16.558594 10.214844 -15.648438 C 9.398438 -14.714844 8.992188 -13.234375 8.992188 -11.199219 L 8.992188 0.4375 L 2.679688 0.4375 Z M 3.558594 0 L 3.117188 0 L 3.117188 -0.4375 L 8.550781 -0.4375 L 8.550781 0 L 8.113281 0 L 8.113281 -11.199219 C 8.113281 -13.453125 8.59375 -15.128906 9.554688 -16.226562 C 10.53125 -17.339844 11.84375 -17.894531 13.496094 -17.894531 C 14.867188 -17.894531 15.894531 -17.511719 16.570312 -16.746094 C 17.230469 -15.996094 17.5625 -14.828125 17.5625 -13.238281 L 17.5625 0 L 17.125 0 L 17.125 -0.4375 L 22.554688 -0.4375 L 22.554688 0 L 22.117188 0 L 22.117188 -13.925781 C 22.117188 -16.523438 21.558594 -18.457031 20.4375 -19.726562 C 19.332031 -20.980469 17.652344 -21.605469 15.398438 -21.605469 C 13.996094 -21.605469 12.804688 -21.335938 11.824219 -20.796875 C 10.839844 -20.257812 10.007812 -19.484375 9.328125 -18.484375 L 9.164062 -18.246094 L 8.113281 -18.445312 L 8.113281 -30.324219 L 8.550781 -30.324219 L 8.550781 -29.882812 L 3.117188 -29.882812 L 3.117188 -30.324219 L 3.558594 -30.324219 Z M 3.558594 0 "/></g></g></g><g fill="#9d5977" fill-opacity="1"><g transform="translate(126.147031, 118.340709)"><g><path d="M 8.433594 0.851562 C 6.980469 0.851562 5.710938 0.582031 4.628906 0.0390625 C 3.527344 -0.511719 2.679688 -1.320312 2.085938 -2.386719 C 1.5 -3.4375 1.207031 -4.695312 1.207031 -6.160156 C 1.207031 -7.523438 1.503906 -8.679688 2.101562 -9.621094 C 2.695312 -10.558594 3.605469 -11.328125 4.832031 -11.917969 C 6.019531 -12.492188 7.5625 -12.933594 9.460938 -13.242188 C 10.730469 -13.445312 11.6875 -13.667969 12.332031 -13.90625 C 12.925781 -14.125 13.3125 -14.355469 13.496094 -14.601562 C 13.671875 -14.835938 13.761719 -15.148438 13.761719 -15.535156 C 13.761719 -16.082031 13.578125 -16.496094 13.210938 -16.773438 C 12.804688 -17.078125 12.089844 -17.234375 11.0625 -17.234375 C 9.929688 -17.234375 8.847656 -16.980469 7.824219 -16.472656 C 6.789062 -15.960938 5.890625 -15.289062 5.128906 -14.453125 L 5 -14.308594 L 4.175781 -14.308594 L 1.582031 -18.222656 L 1.8125 -18.476562 C 2.953125 -19.742188 4.34375 -20.726562 5.984375 -21.429688 C 7.621094 -22.132812 9.40625 -22.484375 11.335938 -22.484375 C 14.316406 -22.484375 16.492188 -21.835938 17.855469 -20.539062 C 19.230469 -19.238281 19.917969 -17.40625 19.917969 -15.042969 L 19.917969 -5.648438 C 19.917969 -5.277344 19.984375 -5.007812 20.125 -4.851562 C 20.25 -4.707031 20.460938 -4.636719 20.75 -4.636719 C 21.027344 -4.636719 21.292969 -4.6875 21.558594 -4.785156 L 21.695312 -4.835938 L 22.394531 -4.636719 L 22.84375 -0.289062 L 22.621094 -0.140625 C 22.277344 0.0820312 21.808594 0.261719 21.222656 0.398438 C 20.65625 0.53125 20.035156 0.597656 19.359375 0.597656 C 17.972656 0.597656 16.882812 0.320312 16.082031 -0.226562 C 15.269531 -0.78125 14.691406 -1.640625 14.347656 -2.796875 L 14.769531 -2.921875 L 14.726562 -2.484375 L 14.316406 -2.523438 L 14.359375 -2.960938 L 14.753906 -2.773438 C 14.1875 -1.566406 13.367188 -0.65625 12.300781 -0.0507812 C 11.246094 0.550781 9.957031 0.851562 8.433594 0.851562 Z M 8.433594 -0.0273438 C 9.800781 -0.0273438 10.945312 -0.289062 11.863281 -0.8125 C 12.773438 -1.328125 13.46875 -2.109375 13.960938 -3.148438 L 14.089844 -3.429688 L 15.105469 -3.332031 L 15.191406 -3.046875 C 15.476562 -2.089844 15.9375 -1.390625 16.578125 -0.949219 C 17.226562 -0.503906 18.15625 -0.28125 19.359375 -0.28125 C 19.964844 -0.28125 20.523438 -0.339844 21.023438 -0.457031 C 21.511719 -0.570312 21.882812 -0.710938 22.140625 -0.878906 L 22.378906 -0.511719 L 21.941406 -0.464844 L 21.550781 -4.25 L 21.988281 -4.296875 L 21.867188 -3.871094 L 21.59375 -3.953125 L 21.714844 -4.375 L 21.867188 -3.960938 C 21.503906 -3.828125 21.132812 -3.757812 20.75 -3.757812 C 20.195312 -3.757812 19.765625 -3.929688 19.464844 -4.269531 C 19.179688 -4.59375 19.039062 -5.054688 19.039062 -5.648438 L 19.039062 -15.042969 C 19.039062 -17.15625 18.441406 -18.773438 17.253906 -19.902344 C 16.054688 -21.039062 14.082031 -21.605469 11.335938 -21.605469 C 9.527344 -21.605469 7.859375 -21.277344 6.332031 -20.621094 C 4.808594 -19.96875 3.519531 -19.054688 2.464844 -17.886719 L 2.136719 -18.183594 L 2.503906 -18.425781 L 4.78125 -14.992188 L 4.414062 -14.75 L 4.414062 -15.1875 L 4.804688 -15.1875 L 4.804688 -14.75 L 4.480469 -15.046875 C 5.316406 -15.960938 6.300781 -16.703125 7.433594 -17.261719 C 8.582031 -17.828125 9.792969 -18.113281 11.0625 -18.113281 C 12.285156 -18.113281 13.179688 -17.898438 13.738281 -17.472656 C 14.339844 -17.019531 14.640625 -16.375 14.640625 -15.535156 C 14.640625 -14.953125 14.492188 -14.464844 14.199219 -14.074219 C 13.910156 -13.691406 13.390625 -13.359375 12.636719 -13.082031 C 11.9375 -12.824219 10.925781 -12.589844 9.601562 -12.375 C 7.789062 -12.082031 6.324219 -11.664062 5.210938 -11.128906 C 4.136719 -10.609375 3.347656 -9.949219 2.84375 -9.152344 C 2.339844 -8.351562 2.085938 -7.355469 2.085938 -6.160156 C 2.085938 -4.847656 2.34375 -3.734375 2.855469 -2.8125 C 3.359375 -1.90625 4.082031 -1.214844 5.023438 -0.746094 C 5.980469 -0.265625 7.117188 -0.0273438 8.433594 -0.0273438 Z M 10.160156 -4.085938 C 11.285156 -4.085938 12.179688 -4.460938 12.84375 -5.207031 C 13.519531 -5.964844 13.859375 -7.042969 13.859375 -8.433594 L 13.859375 -10.632812 L 14.296875 -10.632812 L 14.207031 -10.199219 L 13.835938 -10.28125 L 13.925781 -10.710938 L 14.199219 -10.367188 C 13.832031 -10.070312 13.359375 -9.828125 12.78125 -9.636719 C 12.230469 -9.453125 11.445312 -9.273438 10.429688 -9.097656 C 9.339844 -8.917969 8.566406 -8.617188 8.113281 -8.199219 C 7.691406 -7.808594 7.480469 -7.242188 7.480469 -6.492188 C 7.480469 -5.695312 7.707031 -5.101562 8.15625 -4.703125 C 8.621094 -4.292969 9.289062 -4.085938 10.160156 -4.085938 Z M 10.160156 -3.207031 C 9.070312 -3.207031 8.207031 -3.488281 7.574219 -4.042969 C 6.925781 -4.617188 6.601562 -5.429688 6.601562 -6.492188 C 6.601562 -7.496094 6.90625 -8.28125 7.519531 -8.84375 C 8.097656 -9.382812 9.019531 -9.753906 10.28125 -9.964844 C 11.253906 -10.132812 11.992188 -10.300781 12.503906 -10.46875 C 12.984375 -10.628906 13.367188 -10.824219 13.652344 -11.050781 L 13.8125 -11.183594 L 14.738281 -10.988281 L 14.738281 -8.433594 C 14.738281 -6.820312 14.324219 -5.546875 13.5 -4.621094 C 12.660156 -3.679688 11.546875 -3.207031 10.160156 -3.207031 Z M 7.589844 -24.058594 C 6.632812 -24.058594 5.851562 -24.355469 5.242188 -24.949219 C 4.632812 -25.542969 4.328125 -26.296875 4.328125 -27.203125 C 4.328125 -28.113281 4.632812 -28.863281 5.242188 -29.460938 C 5.851562 -30.054688 6.632812 -30.351562 7.589844 -30.351562 C 8.558594 -30.351562 9.347656 -30.058594 9.953125 -29.472656 C 10.566406 -28.882812 10.875 -28.128906 10.875 -27.203125 C 10.875 -26.296875 10.570312 -25.542969 9.957031 -24.949219 C 9.347656 -24.355469 8.558594 -24.058594 7.589844 -24.058594 Z M 7.589844 -24.9375 C 8.320312 -24.9375 8.90625 -25.152344 9.34375 -25.578125 C 9.777344 -26 9.996094 -26.542969 9.996094 -27.203125 C 9.996094 -27.878906 9.777344 -28.421875 9.34375 -28.839844 C 8.90625 -29.261719 8.324219 -29.472656 7.589844 -29.472656 C 6.871094 -29.472656 6.296875 -29.257812 5.859375 -28.832031 C 5.421875 -28.410156 5.207031 -27.867188 5.207031 -27.203125 C 5.207031 -26.542969 5.421875 -26 5.859375 -25.578125 C 6.296875 -25.152344 6.871094 -24.9375 7.589844 -24.9375 Z M 15.0625 -24.058594 C 14.09375 -24.058594 13.308594 -24.351562 12.707031 -24.9375 C 12.101562 -25.527344 11.800781 -26.285156 11.800781 -27.203125 C 11.800781 -28.125 12.101562 -28.882812 12.707031 -29.472656 C 13.308594 -30.058594 14.09375 -30.351562 15.0625 -30.351562 C 16.019531 -30.351562 16.800781 -30.054688 17.410156 -29.460938 C 18.023438 -28.863281 18.328125 -28.113281 18.328125 -27.203125 C 18.328125 -26.296875 18.023438 -25.542969 17.410156 -24.949219 C 16.800781 -24.355469 16.019531 -24.058594 15.0625 -24.058594 Z M 15.0625 -24.9375 C 15.78125 -24.9375 16.359375 -25.152344 16.796875 -25.578125 C 17.230469 -26 17.449219 -26.542969 17.449219 -27.203125 C 17.449219 -27.867188 17.230469 -28.410156 16.796875 -28.832031 C 16.359375 -29.257812 15.78125 -29.472656 15.0625 -29.472656 C 14.332031 -29.472656 13.75 -29.261719 13.320312 -28.84375 C 12.894531 -28.425781 12.679688 -27.878906 12.679688 -27.203125 C 12.679688 -26.53125 12.894531 -25.984375 13.320312 -25.566406 C 13.75 -25.148438 14.332031 -24.9375 15.0625 -24.9375 Z M 15.0625 -24.9375 "/></g></g></g><g fill="#9d5977" fill-opacity="1"><g transform="translate(148.698633, 118.340709)"><g><path d="M 3.347656 0 L 3.347656 -17.339844 L 3.785156 -17.339844 L 3.785156 -16.898438 L 0.285156 -16.898438 L 0.285156 -22.09375 L 3.785156 -22.09375 L 3.785156 -21.652344 L 3.359375 -21.550781 C 3.128906 -22.5 3.011719 -23.390625 3.011719 -24.222656 C 3.011719 -25.683594 3.351562 -26.9375 4.023438 -27.980469 C 4.699219 -29.03125 5.667969 -29.828125 6.925781 -30.375 C 8.160156 -30.90625 9.617188 -31.175781 11.296875 -31.175781 C 13.78125 -31.175781 15.652344 -30.738281 16.90625 -29.859375 L 17.167969 -29.675781 L 15.714844 -25.117188 L 14.863281 -24.953125 L 14.710938 -25.0625 C 13.976562 -25.582031 13.023438 -25.84375 11.847656 -25.84375 C 10.984375 -25.84375 10.351562 -25.648438 9.945312 -25.253906 C 9.546875 -24.859375 9.34375 -24.316406 9.34375 -23.617188 C 9.34375 -23.285156 9.367188 -22.984375 9.40625 -22.710938 C 9.449219 -22.441406 9.527344 -22.132812 9.636719 -21.789062 L 9.21875 -21.652344 L 9.21875 -22.09375 L 15.835938 -22.09375 L 15.835938 -16.898438 L 9.21875 -16.898438 L 9.21875 -17.339844 L 9.65625 -17.339844 L 9.65625 0.4375 L 3.347656 0.4375 Z M 4.226562 0 L 3.785156 0 L 3.785156 -0.4375 L 9.21875 -0.4375 L 9.21875 0 L 8.78125 0 L 8.78125 -17.777344 L 15.398438 -17.777344 L 15.398438 -17.339844 L 14.957031 -17.339844 L 14.957031 -21.652344 L 15.398438 -21.652344 L 15.398438 -21.214844 L 8.898438 -21.214844 L 8.800781 -21.519531 C 8.675781 -21.90625 8.589844 -22.261719 8.539062 -22.578125 C 8.488281 -22.894531 8.464844 -23.238281 8.464844 -23.617188 C 8.464844 -24.5625 8.753906 -25.320312 9.332031 -25.882812 C 9.910156 -26.441406 10.746094 -26.722656 11.847656 -26.722656 C 13.207031 -26.722656 14.332031 -26.40625 15.21875 -25.777344 L 14.964844 -25.421875 L 14.882812 -25.851562 L 15.296875 -25.929688 L 15.378906 -25.5 L 14.957031 -25.632812 L 16.234375 -29.632812 L 16.652344 -29.5 L 16.402344 -29.140625 C 15.300781 -29.910156 13.597656 -30.296875 11.296875 -30.296875 C 9.738281 -30.296875 8.394531 -30.054688 7.273438 -29.566406 C 6.179688 -29.09375 5.34375 -28.40625 4.761719 -27.507812 C 4.183594 -26.605469 3.890625 -25.511719 3.890625 -24.222656 C 3.890625 -23.460938 4 -22.640625 4.210938 -21.757812 L 4.34375 -21.214844 L 0.726562 -21.214844 L 0.726562 -21.652344 L 1.164062 -21.652344 L 1.164062 -17.339844 L 0.726562 -17.339844 L 0.726562 -17.777344 L 4.226562 -17.777344 Z M 4.226562 0 "/></g></g></g><g fill="#9d5977" fill-opacity="1"><g transform="translate(164.79866, 118.340709)"><g><path d="M 3.347656 0 L 3.347656 -17.339844 L 3.785156 -17.339844 L 3.785156 -16.898438 L 0.285156 -16.898438 L 0.285156 -22.09375 L 3.785156 -22.09375 L 3.785156 -21.652344 L 3.359375 -21.550781 C 3.128906 -22.5 3.011719 -23.390625 3.011719 -24.222656 C 3.011719 -25.683594 3.351562 -26.9375 4.023438 -27.980469 C 4.699219 -29.03125 5.667969 -29.828125 6.925781 -30.375 C 8.160156 -30.90625 9.617188 -31.175781 11.296875 -31.175781 C 13.78125 -31.175781 15.652344 -30.738281 16.90625 -29.859375 L 17.167969 -29.675781 L 15.714844 -25.117188 L 14.863281 -24.953125 L 14.710938 -25.0625 C 13.976562 -25.582031 13.023438 -25.84375 11.847656 -25.84375 C 10.984375 -25.84375 10.351562 -25.648438 9.945312 -25.253906 C 9.546875 -24.859375 9.34375 -24.316406 9.34375 -23.617188 C 9.34375 -23.285156 9.367188 -22.984375 9.40625 -22.710938 C 9.449219 -22.441406 9.527344 -22.132812 9.636719 -21.789062 L 9.21875 -21.652344 L 9.21875 -22.09375 L 15.835938 -22.09375 L 15.835938 -16.898438 L 9.21875 -16.898438 L 9.21875 -17.339844 L 9.65625 -17.339844 L 9.65625 0.4375 L 3.347656 0.4375 Z M 4.226562 0 L 3.785156 0 L 3.785156 -0.4375 L 9.21875 -0.4375 L 9.21875 0 L 8.78125 0 L 8.78125 -17.777344 L 15.398438 -17.777344 L 15.398438 -17.339844 L 14.957031 -17.339844 L 14.957031 -21.652344 L 15.398438 -21.652344 L 15.398438 -21.214844 L 8.898438 -21.214844 L 8.800781 -21.519531 C 8.675781 -21.90625 8.589844 -22.261719 8.539062 -22.578125 C 8.488281 -22.894531 8.464844 -23.238281 8.464844 -23.617188 C 8.464844 -24.5625 8.753906 -25.320312 9.332031 -25.882812 C 9.910156 -26.441406 10.746094 -26.722656 11.847656 -26.722656 C 13.207031 -26.722656 14.332031 -26.40625 15.21875 -25.777344 L 14.964844 -25.421875 L 14.882812 -25.851562 L 15.296875 -25.929688 L 15.378906 -25.5 L 14.957031 -25.632812 L 16.234375 -29.632812 L 16.652344 -29.5 L 16.402344 -29.140625 C 15.300781 -29.910156 13.597656 -30.296875 11.296875 -30.296875 C 9.738281 -30.296875 8.394531 -30.054688 7.273438 -29.566406 C 6.179688 -29.09375 5.34375 -28.40625 4.761719 -27.507812 C 4.183594 -26.605469 3.890625 -25.511719 3.890625 -24.222656 C 3.890625 -23.460938 4 -22.640625 4.210938 -21.757812 L 4.34375 -21.214844 L 0.726562 -21.214844 L 0.726562 -21.652344 L 1.164062 -21.652344 L 1.164062 -17.339844 L 0.726562 -17.339844 L 0.726562 -17.777344 L 4.226562 -17.777344 Z M 4.226562 0 "/></g></g></g><g fill="#9d5977" fill-opacity="1"><g transform="translate(180.212183, 118.340709)"><g><path d="M 21.378906 -9.152344 L 7.472656 -9.152344 L 7.472656 -9.589844 L 7.910156 -9.628906 C 8.058594 -7.855469 8.546875 -6.582031 9.382812 -5.804688 C 10.210938 -5.027344 11.359375 -4.636719 12.828125 -4.636719 C 13.988281 -4.636719 14.921875 -4.847656 15.621094 -5.269531 C 16.320312 -5.691406 16.886719 -6.332031 17.320312 -7.199219 L 17.441406 -7.441406 L 18.253906 -7.441406 L 22.292969 -4.851562 L 22.132812 -4.503906 C 21.390625 -2.910156 20.273438 -1.621094 18.777344 -0.632812 C 17.277344 0.355469 15.296875 0.851562 12.828125 0.851562 C 10.519531 0.851562 8.519531 0.410156 6.828125 -0.472656 C 5.121094 -1.367188 3.800781 -2.691406 2.875 -4.453125 C 1.960938 -6.199219 1.503906 -8.316406 1.503906 -10.808594 C 1.503906 -13.339844 1.984375 -15.484375 2.949219 -17.238281 C 3.921875 -19 5.234375 -20.320312 6.894531 -21.191406 C 8.542969 -22.054688 10.390625 -22.484375 12.433594 -22.484375 C 15.617188 -22.484375 18.0625 -21.632812 19.777344 -19.925781 C 21.492188 -18.21875 22.347656 -15.734375 22.347656 -12.476562 C 22.347656 -11.320312 22.308594 -10.417969 22.226562 -9.773438 L 22.199219 -9.554688 L 21.496094 -9.152344 Z M 21.378906 -10.03125 L 21.378906 -9.589844 L 21.160156 -9.972656 L 21.574219 -10.207031 L 21.792969 -9.828125 L 21.355469 -9.882812 C 21.429688 -10.492188 21.46875 -11.355469 21.46875 -12.476562 C 21.46875 -15.492188 20.699219 -17.765625 19.15625 -19.304688 C 17.613281 -20.839844 15.375 -21.605469 12.433594 -21.605469 C 10.53125 -21.605469 8.824219 -21.207031 7.304688 -20.410156 C 5.800781 -19.621094 4.605469 -18.421875 3.71875 -16.8125 C 2.828125 -15.191406 2.382812 -13.191406 2.382812 -10.808594 C 2.382812 -8.460938 2.804688 -6.480469 3.65625 -4.863281 C 4.496094 -3.261719 5.6875 -2.058594 7.234375 -1.253906 C 8.800781 -0.4375 10.664062 -0.0273438 12.828125 -0.0273438 C 15.121094 -0.0273438 16.941406 -0.472656 18.292969 -1.367188 C 19.648438 -2.261719 20.664062 -3.429688 21.335938 -4.875 L 21.734375 -4.6875 L 21.496094 -4.316406 L 17.886719 -6.632812 L 18.125 -7.003906 L 18.125 -6.5625 L 17.710938 -6.5625 L 17.710938 -7.003906 L 18.105469 -6.804688 C 17.597656 -5.789062 16.917969 -5.023438 16.074219 -4.515625 C 15.234375 -4.011719 14.152344 -3.757812 12.828125 -3.757812 C 11.128906 -3.757812 9.78125 -4.226562 8.78125 -5.160156 C 7.785156 -6.09375 7.203125 -7.558594 7.035156 -9.554688 L 6.996094 -10.03125 Z M 16.273438 -13.089844 C 16.222656 -14.625 15.882812 -15.726562 15.246094 -16.398438 C 14.617188 -17.058594 13.683594 -17.390625 12.433594 -17.390625 C 11.183594 -17.390625 10.195312 -17.039062 9.472656 -16.332031 C 8.734375 -15.613281 8.253906 -14.515625 8.023438 -13.035156 L 7.589844 -13.101562 L 7.589844 -13.542969 L 16.710938 -13.542969 L 16.710938 -13.101562 Z M 17.164062 -12.664062 L 7.078125 -12.664062 L 7.15625 -13.167969 C 7.414062 -14.839844 7.980469 -16.105469 8.859375 -16.960938 C 9.75 -17.832031 10.941406 -18.269531 12.433594 -18.269531 C 13.933594 -18.269531 15.082031 -17.847656 15.882812 -17.003906 C 16.671875 -16.171875 17.09375 -14.875 17.152344 -13.117188 Z M 17.164062 -12.664062 "/></g></g></g><g fill="#9d5977" fill-opacity="1"><g transform="translate(203.724739, 118.340709)"><g><path d="M 2.679688 0 L 2.679688 -22.074219 L 8.835938 -22.074219 L 8.835938 -18.417969 L 8.394531 -18.417969 L 8.476562 -18.847656 L 8.890625 -18.769531 L 8.808594 -18.339844 L 8.402344 -18.515625 C 8.960938 -19.796875 9.703125 -20.742188 10.625 -21.355469 C 11.546875 -21.964844 12.660156 -22.269531 13.964844 -22.269531 C 15.28125 -22.269531 16.296875 -22.035156 17.011719 -21.570312 L 17.257812 -21.410156 L 16.222656 -16.140625 L 15.390625 -15.980469 L 15.269531 -16.03125 C 14.941406 -16.164062 14.628906 -16.261719 14.332031 -16.320312 C 14.03125 -16.378906 13.660156 -16.410156 13.21875 -16.410156 C 11.851562 -16.410156 10.808594 -15.933594 10.101562 -14.988281 C 9.359375 -14 8.992188 -12.378906 8.992188 -10.121094 L 8.992188 0.4375 L 2.679688 0.4375 Z M 3.558594 0 L 3.117188 0 L 3.117188 -0.4375 L 8.550781 -0.4375 L 8.550781 0 L 8.113281 0 L 8.113281 -10.121094 C 8.113281 -12.570312 8.539062 -14.371094 9.398438 -15.511719 C 10.28125 -16.695312 11.554688 -17.289062 13.21875 -17.289062 C 13.71875 -17.289062 14.148438 -17.253906 14.503906 -17.179688 C 14.855469 -17.109375 15.222656 -16.996094 15.601562 -16.84375 L 15.4375 -16.4375 L 15.355469 -16.867188 L 15.765625 -16.945312 L 15.847656 -16.515625 L 15.417969 -16.601562 L 16.339844 -21.289062 L 16.769531 -21.203125 L 16.53125 -20.835938 C 15.960938 -21.207031 15.105469 -21.390625 13.964844 -21.390625 C 12.835938 -21.390625 11.886719 -21.132812 11.109375 -20.621094 C 10.332031 -20.105469 9.699219 -19.289062 9.210938 -18.164062 L 9.070312 -17.84375 L 7.957031 -18.054688 L 7.957031 -21.632812 L 8.394531 -21.632812 L 8.394531 -21.195312 L 3.117188 -21.195312 L 3.117188 -21.632812 L 3.558594 -21.632812 Z M 3.558594 0 "/></g></g></g><g fill="#75485c" fill-opacity="1"><g transform="translate(54.885069, 82.276931)"><g><path d="M 10.042969 0.851562 C 7.53125 0.851562 5.4375 0.371094 3.761719 -0.589844 C 2.074219 -1.558594 0.84375 -2.859375 0.0742188 -4.5 L -0.046875 -4.753906 L 3.460938 -9.011719 L 4.449219 -9.011719 L 4.5625 -8.742188 C 5.054688 -7.558594 5.75 -6.628906 6.648438 -5.949219 C 7.53125 -5.285156 8.558594 -4.949219 9.730469 -4.949219 C 11.015625 -4.949219 11.964844 -5.3125 12.570312 -6.039062 C 13.195312 -6.789062 13.507812 -8.042969 13.507812 -9.808594 L 13.507812 -29.117188 L 20.035156 -29.117188 L 20.035156 -9.710938 C 20.035156 -6.125 19.207031 -3.472656 17.546875 -1.746094 C 15.886719 -0.015625 13.382812 0.851562 10.042969 0.851562 Z M 10.042969 -0.0273438 C 13.132812 -0.0273438 15.425781 -0.804688 16.914062 -2.355469 C 18.410156 -3.910156 19.15625 -6.363281 19.15625 -9.710938 L 19.15625 -28.675781 L 19.59375 -28.675781 L 19.59375 -28.238281 L 13.945312 -28.238281 L 13.945312 -28.675781 L 14.386719 -28.675781 L 14.386719 -9.808594 C 14.386719 -7.832031 14.003906 -6.386719 13.242188 -5.476562 C 12.460938 -4.539062 11.292969 -4.070312 9.730469 -4.070312 C 8.363281 -4.070312 7.160156 -4.464844 6.121094 -5.25 C 5.09375 -6.023438 4.304688 -7.074219 3.753906 -8.402344 L 4.160156 -8.570312 L 4.160156 -8.132812 L 3.667969 -8.132812 L 3.667969 -8.570312 L 4.007812 -8.292969 L 0.808594 -4.410156 L 0.472656 -4.6875 L 0.867188 -4.875 C 1.5625 -3.402344 2.671875 -2.226562 4.199219 -1.351562 C 5.742188 -0.46875 7.6875 -0.0273438 10.042969 -0.0273438 Z M 10.042969 -0.0273438 "/></g></g></g><g fill="#75485c" fill-opacity="1"><g transform="translate(78.025032, 82.276931)"><g><path d="M 9.90625 0.851562 C 7.339844 0.851562 5.433594 0.136719 4.191406 -1.289062 C 2.960938 -2.699219 2.347656 -4.703125 2.347656 -7.296875 L 2.347656 -22.074219 L 8.65625 -22.074219 L 8.65625 -7.984375 C 8.65625 -6.777344 8.902344 -5.914062 9.390625 -5.390625 C 9.875 -4.875 10.648438 -4.617188 11.710938 -4.617188 C 13.078125 -4.617188 14.136719 -5.058594 14.886719 -5.941406 C 15.652344 -6.847656 16.035156 -8.304688 16.035156 -10.316406 L 16.035156 -22.074219 L 22.347656 -22.074219 L 22.347656 0.4375 L 16.253906 0.4375 L 16.253906 -3.175781 L 16.691406 -3.175781 L 16.589844 -2.75 L 16.179688 -2.847656 L 16.28125 -3.277344 L 16.664062 -3.0625 C 15.933594 -1.75 15.035156 -0.773438 13.96875 -0.125 C 12.898438 0.527344 11.542969 0.851562 9.90625 0.851562 Z M 9.90625 -0.0273438 C 11.378906 -0.0273438 12.582031 -0.308594 13.511719 -0.875 C 14.445312 -1.445312 15.242188 -2.316406 15.894531 -3.488281 L 16.058594 -3.78125 L 17.132812 -3.523438 L 17.132812 0 L 16.691406 0 L 16.691406 -0.4375 L 21.910156 -0.4375 L 21.910156 0 L 21.46875 0 L 21.46875 -21.632812 L 21.910156 -21.632812 L 21.910156 -21.195312 L 16.476562 -21.195312 L 16.476562 -21.632812 L 16.914062 -21.632812 L 16.914062 -10.316406 C 16.914062 -8.089844 16.460938 -6.445312 15.554688 -5.375 C 14.632812 -4.285156 13.347656 -3.738281 11.710938 -3.738281 C 10.394531 -3.738281 9.40625 -4.089844 8.75 -4.789062 C 8.101562 -5.480469 7.777344 -6.546875 7.777344 -7.984375 L 7.777344 -21.632812 L 8.21875 -21.632812 L 8.21875 -21.195312 L 2.785156 -21.195312 L 2.785156 -21.632812 L 3.226562 -21.632812 L 3.226562 -7.296875 C 3.226562 -4.921875 3.765625 -3.113281 4.851562 -1.867188 C 5.921875 -0.640625 7.605469 -0.0273438 9.90625 -0.0273438 Z M 9.90625 -0.0273438 "/></g></g></g><g fill="#75485c" fill-opacity="1"><g transform="translate(103.047569, 82.276931)"><g><path d="M 8.984375 0.851562 C 6.910156 0.851562 5.320312 0.28125 4.207031 -0.859375 C 3.097656 -2 2.542969 -3.699219 2.542969 -5.960938 L 2.542969 -30.761719 L 8.855469 -30.761719 L 8.855469 -6.179688 C 8.855469 -5.625 8.957031 -5.222656 9.164062 -4.972656 C 9.351562 -4.75 9.648438 -4.636719 10.0625 -4.636719 C 10.332031 -4.636719 10.625 -4.683594 10.9375 -4.777344 L 11.058594 -4.8125 L 11.738281 -4.617188 L 12.300781 0.152344 L 12.03125 0.292969 C 11.691406 0.46875 11.25 0.605469 10.710938 0.707031 C 10.1875 0.804688 9.613281 0.851562 8.984375 0.851562 Z M 8.984375 -0.0273438 C 9.558594 -0.0273438 10.082031 -0.0703125 10.550781 -0.15625 C 11.003906 -0.242188 11.363281 -0.351562 11.625 -0.488281 L 11.828125 -0.0976562 L 11.390625 -0.046875 L 10.902344 -4.226562 L 11.335938 -4.277344 L 11.214844 -3.851562 L 10.941406 -3.933594 L 11.0625 -4.355469 L 11.1875 -3.933594 C 10.792969 -3.816406 10.417969 -3.757812 10.0625 -3.757812 C 9.375 -3.757812 8.851562 -3.976562 8.488281 -4.410156 C 8.144531 -4.824219 7.976562 -5.414062 7.976562 -6.179688 L 7.976562 -30.324219 L 8.414062 -30.324219 L 8.414062 -29.882812 L 2.980469 -29.882812 L 2.980469 -30.324219 L 3.421875 -30.324219 L 3.421875 -5.960938 C 3.421875 -3.9375 3.890625 -2.441406 4.835938 -1.472656 C 5.777344 -0.507812 7.160156 -0.0273438 8.984375 -0.0273438 Z M 8.984375 -0.0273438 "/></g></g></g><g fill="#75485c" fill-opacity="1"><g transform="translate(115.480397, 82.276931)"><g><path d="M 5.824219 -23.785156 C 4.726562 -23.785156 3.828125 -24.121094 3.125 -24.800781 C 2.421875 -25.480469 2.070312 -26.355469 2.070312 -27.421875 C 2.070312 -28.472656 2.421875 -29.339844 3.125 -30.019531 C 3.828125 -30.699219 4.726562 -31.039062 5.824219 -31.039062 C 6.554688 -31.039062 7.203125 -30.882812 7.78125 -30.574219 C 8.363281 -30.261719 8.8125 -29.828125 9.136719 -29.28125 C 9.457031 -28.734375 9.617188 -28.113281 9.617188 -27.421875 C 9.617188 -26.726562 9.457031 -26.105469 9.136719 -25.550781 C 8.816406 -24.996094 8.363281 -24.5625 7.78125 -24.25 C 7.203125 -23.9375 6.554688 -23.785156 5.824219 -23.785156 Z M 5.824219 -24.664062 C 6.40625 -24.664062 6.917969 -24.78125 7.363281 -25.023438 C 7.800781 -25.257812 8.136719 -25.582031 8.378906 -25.992188 C 8.621094 -26.410156 8.738281 -26.886719 8.738281 -27.421875 C 8.738281 -27.957031 8.621094 -28.425781 8.378906 -28.835938 C 8.140625 -29.242188 7.800781 -29.5625 7.363281 -29.800781 C 6.917969 -30.039062 6.40625 -30.160156 5.824219 -30.160156 C 4.964844 -30.160156 4.265625 -29.902344 3.738281 -29.390625 C 3.210938 -28.882812 2.949219 -28.226562 2.949219 -27.421875 C 2.949219 -26.601562 3.210938 -25.941406 3.738281 -25.433594 C 4.265625 -24.917969 4.964844 -24.664062 5.824219 -24.664062 Z M 2.679688 0 L 2.679688 -22.074219 L 8.992188 -22.074219 L 8.992188 0.4375 L 2.679688 0.4375 Z M 3.558594 0 L 3.117188 0 L 3.117188 -0.4375 L 8.550781 -0.4375 L 8.550781 0 L 8.113281 0 L 8.113281 -21.632812 L 8.550781 -21.632812 L 8.550781 -21.195312 L 3.117188 -21.195312 L 3.117188 -21.632812 L 3.558594 -21.632812 Z M 3.558594 0 "/></g></g></g><g fill="#75485c" fill-opacity="1"><g transform="translate(127.128819, 82.276931)"><g><path d="M 8.433594 0.851562 C 6.980469 0.851562 5.710938 0.582031 4.628906 0.0390625 C 3.527344 -0.511719 2.679688 -1.320312 2.085938 -2.386719 C 1.5 -3.4375 1.207031 -4.695312 1.207031 -6.160156 C 1.207031 -7.523438 1.503906 -8.679688 2.101562 -9.621094 C 2.695312 -10.558594 3.605469 -11.328125 4.832031 -11.917969 C 6.019531 -12.492188 7.5625 -12.933594 9.460938 -13.242188 C 10.730469 -13.445312 11.6875 -13.667969 12.332031 -13.90625 C 12.925781 -14.125 13.3125 -14.355469 13.496094 -14.601562 C 13.671875 -14.835938 13.761719 -15.148438 13.761719 -15.535156 C 13.761719 -16.082031 13.578125 -16.496094 13.210938 -16.773438 C 12.804688 -17.078125 12.089844 -17.234375 11.0625 -17.234375 C 9.929688 -17.234375 8.847656 -16.980469 7.824219 -16.472656 C 6.789062 -15.960938 5.890625 -15.289062 5.128906 -14.453125 L 5 -14.308594 L 4.175781 -14.308594 L 1.582031 -18.222656 L 1.8125 -18.476562 C 2.953125 -19.742188 4.34375 -20.726562 5.984375 -21.429688 C 7.621094 -22.132812 9.40625 -22.484375 11.335938 -22.484375 C 14.316406 -22.484375 16.492188 -21.835938 17.855469 -20.539062 C 19.230469 -19.238281 19.917969 -17.40625 19.917969 -15.042969 L 19.917969 -5.648438 C 19.917969 -5.277344 19.984375 -5.007812 20.125 -4.851562 C 20.25 -4.707031 20.460938 -4.636719 20.75 -4.636719 C 21.027344 -4.636719 21.292969 -4.6875 21.558594 -4.785156 L 21.695312 -4.835938 L 22.394531 -4.636719 L 22.84375 -0.289062 L 22.621094 -0.140625 C 22.277344 0.0820312 21.808594 0.261719 21.222656 0.398438 C 20.65625 0.53125 20.035156 0.597656 19.359375 0.597656 C 17.972656 0.597656 16.882812 0.320312 16.082031 -0.226562 C 15.269531 -0.78125 14.691406 -1.640625 14.347656 -2.796875 L 14.769531 -2.921875 L 14.726562 -2.484375 L 14.316406 -2.523438 L 14.359375 -2.960938 L 14.753906 -2.773438 C 14.1875 -1.566406 13.367188 -0.65625 12.300781 -0.0507812 C 11.246094 0.550781 9.957031 0.851562 8.433594 0.851562 Z M 8.433594 -0.0273438 C 9.800781 -0.0273438 10.945312 -0.289062 11.863281 -0.8125 C 12.773438 -1.328125 13.46875 -2.109375 13.960938 -3.148438 L 14.089844 -3.429688 L 15.105469 -3.332031 L 15.191406 -3.046875 C 15.476562 -2.089844 15.9375 -1.390625 16.578125 -0.949219 C 17.226562 -0.503906 18.15625 -0.28125 19.359375 -0.28125 C 19.964844 -0.28125 20.523438 -0.339844 21.023438 -0.457031 C 21.511719 -0.570312 21.882812 -0.710938 22.140625 -0.878906 L 22.378906 -0.511719 L 21.941406 -0.464844 L 21.550781 -4.25 L 21.988281 -4.296875 L 21.867188 -3.871094 L 21.59375 -3.953125 L 21.714844 -4.375 L 21.867188 -3.960938 C 21.503906 -3.828125 21.132812 -3.757812 20.75 -3.757812 C 20.195312 -3.757812 19.765625 -3.929688 19.464844 -4.269531 C 19.179688 -4.59375 19.039062 -5.054688 19.039062 -5.648438 L 19.039062 -15.042969 C 19.039062 -17.15625 18.441406 -18.773438 17.253906 -19.902344 C 16.054688 -21.039062 14.082031 -21.605469 11.335938 -21.605469 C 9.527344 -21.605469 7.859375 -21.277344 6.332031 -20.621094 C 4.808594 -19.96875 3.519531 -19.054688 2.464844 -17.886719 L 2.136719 -18.183594 L 2.503906 -18.425781 L 4.78125 -14.992188 L 4.414062 -14.75 L 4.414062 -15.1875 L 4.804688 -15.1875 L 4.804688 -14.75 L 4.480469 -15.046875 C 5.316406 -15.960938 6.300781 -16.703125 7.433594 -17.261719 C 8.582031 -17.828125 9.792969 -18.113281 11.0625 -18.113281 C 12.285156 -18.113281 13.179688 -17.898438 13.738281 -17.472656 C 14.339844 -17.019531 14.640625 -16.375 14.640625 -15.535156 C 14.640625 -14.953125 14.492188 -14.464844 14.199219 -14.074219 C 13.910156 -13.691406 13.390625 -13.359375 12.636719 -13.082031 C 11.9375 -12.824219 10.925781 -12.589844 9.601562 -12.375 C 7.789062 -12.082031 6.324219 -11.664062 5.210938 -11.128906 C 4.136719 -10.609375 3.347656 -9.949219 2.84375 -9.152344 C 2.339844 -8.351562 2.085938 -7.355469 2.085938 -6.160156 C 2.085938 -4.847656 2.34375 -3.734375 2.855469 -2.8125 C 3.359375 -1.90625 4.082031 -1.214844 5.023438 -0.746094 C 5.980469 -0.265625 7.117188 -0.0273438 8.433594 -0.0273438 Z M 10.160156 -4.085938 C 11.285156 -4.085938 12.179688 -4.460938 12.84375 -5.207031 C 13.519531 -5.964844 13.859375 -7.042969 13.859375 -8.433594 L 13.859375 -10.632812 L 14.296875 -10.632812 L 14.207031 -10.199219 L 13.835938 -10.28125 L 13.925781 -10.710938 L 14.199219 -10.367188 C 13.832031 -10.070312 13.359375 -9.828125 12.78125 -9.636719 C 12.230469 -9.453125 11.445312 -9.273438 10.429688 -9.097656 C 9.339844 -8.917969 8.566406 -8.617188 8.113281 -8.199219 C 7.691406 -7.808594 7.480469 -7.242188 7.480469 -6.492188 C 7.480469 -5.695312 7.707031 -5.101562 8.15625 -4.703125 C 8.621094 -4.292969 9.289062 -4.085938 10.160156 -4.085938 Z M 10.160156 -3.207031 C 9.070312 -3.207031 8.207031 -3.488281 7.574219 -4.042969 C 6.925781 -4.617188 6.601562 -5.429688 6.601562 -6.492188 C 6.601562 -7.496094 6.90625 -8.28125 7.519531 -8.84375 C 8.097656 -9.382812 9.019531 -9.753906 10.28125 -9.964844 C 11.253906 -10.132812 11.992188 -10.300781 12.503906 -10.46875 C 12.984375 -10.628906 13.367188 -10.824219 13.652344 -11.050781 L 13.8125 -11.183594 L 14.738281 -10.988281 L 14.738281 -8.433594 C 14.738281 -6.820312 14.324219 -5.546875 13.5 -4.621094 C 12.660156 -3.679688 11.546875 -3.207031 10.160156 -3.207031 Z M 10.160156 -3.207031 "/></g></g></g><g clip-path="url(#5a58195ab4)"><g transform="matrix(1, 0, 0, 1, 0, 81)"><g clip-path="url(#5202c68b74)"><g fill="#9d5977" fill-opacity="1"><g transform="translate(3.903544, 0.966373)"><g><path d="M 50.65625 22.59375 C 50.65625 26.050781 50.019531 28.953125 48.75 31.296875 C 47.476562 33.648438 45.726562 35.484375 43.5 36.796875 C 41.269531 38.117188 38.738281 38.925781 35.90625 39.21875 L 35.90625 32.59375 C 39.019531 32.300781 41.441406 31.253906 43.171875 29.453125 C 44.898438 27.660156 45.765625 25.207031 45.765625 22.09375 C 45.765625 19.445312 45.140625 17.210938 43.890625 15.390625 C 42.640625 13.566406 40.722656 12.65625 38.140625 12.65625 C 35.453125 12.65625 33.421875 13.484375 32.046875 15.140625 C 30.679688 16.796875 29.566406 19.519531 28.703125 23.3125 C 27.460938 28.78125 25.640625 32.878906 23.234375 35.609375 C 20.835938 38.347656 17.53125 39.71875 13.3125 39.71875 C 10.382812 39.71875 7.851562 38.960938 5.71875 37.453125 C 3.582031 35.941406 1.925781 33.898438 0.75 31.328125 C -0.414062 28.765625 -1 25.878906 -1 22.671875 C -1 17.203125 0.316406 12.8125 2.953125 9.5 C 5.585938 6.1875 9.304688 4.265625 14.109375 3.734375 L 14.109375 10.359375 C 10.835938 11.078125 8.316406 12.523438 6.546875 14.703125 C 4.773438 16.890625 3.890625 19.59375 3.890625 22.8125 C 3.890625 25.632812 4.617188 28.050781 6.078125 30.0625 C 7.546875 32.082031 9.570312 33.09375 12.15625 33.09375 C 15.175781 33.09375 17.476562 32.15625 19.0625 30.28125 C 20.644531 28.414062 21.941406 25.300781 22.953125 20.9375 C 23.617188 18.007812 24.503906 15.429688 25.609375 13.203125 C 26.710938 10.972656 28.148438 9.222656 29.921875 7.953125 C 31.703125 6.679688 33.960938 6.046875 36.703125 6.046875 C 39.578125 6.046875 42.054688 6.785156 44.140625 8.265625 C 46.222656 9.753906 47.828125 11.757812 48.953125 14.28125 C 50.085938 16.800781 50.65625 19.570312 50.65625 22.59375 Z M 50.65625 22.59375 "/></g></g></g></g></g></g><g transform="matrix(1, 0, 0, 1, 6, 23)"><g clip-path="url(#f9533eafc4)"><g fill="#75485c" fill-opacity="1"><g transform="translate(0.583214, 70.217208)"><g><path d="M 35.109375 -49.640625 L 35.109375 -19 C 35.109375 -18.082031 35.109375 -17.164062 35.109375 -16.25 C 35.109375 -15.34375 35.0625 -14.269531 34.96875 -13.03125 C 34.726562 -8.851562 33.3125 -5.46875 30.71875 -2.875 C 28.132812 -0.289062 24.203125 1 18.921875 1 C 14.316406 1 10.707031 -0.328125 8.09375 -2.984375 C 5.476562 -5.648438 4.125 -9.304688 4.03125 -13.953125 L 3.953125 -16.90625 L 10.140625 -16.90625 L 10.296875 -13.953125 C 10.628906 -7.242188 13.789062 -3.890625 19.78125 -3.890625 C 22.664062 -3.890625 24.847656 -4.738281 26.328125 -6.4375 C 27.816406 -8.144531 28.660156 -10.460938 28.859375 -13.390625 C 28.898438 -14.109375 28.921875 -14.929688 28.921875 -15.859375 C 28.921875 -16.796875 28.921875 -17.914062 28.921875 -19.21875 L 28.921875 -49.640625 Z M 35.109375 -49.640625 "/></g></g></g></g></g><g fill="#75485c" fill-opacity="1"><g transform="translate(54.885069, 82.276931)"><g><path d="M 10.046875 0.40625 C 7.609375 0.40625 5.582031 -0.0507812 3.96875 -0.96875 C 2.363281 -1.894531 1.195312 -3.132812 0.46875 -4.6875 L 3.671875 -8.578125 L 4.15625 -8.578125 C 4.675781 -7.316406 5.414062 -6.320312 6.375 -5.59375 C 7.34375 -4.875 8.460938 -4.515625 9.734375 -4.515625 C 11.148438 -4.515625 12.207031 -4.925781 12.90625 -5.75 C 13.601562 -6.582031 13.953125 -7.9375 13.953125 -9.8125 L 13.953125 -28.671875 L 19.59375 -28.671875 L 19.59375 -9.703125 C 19.59375 -6.242188 18.804688 -3.691406 17.234375 -2.046875 C 15.660156 -0.410156 13.265625 0.40625 10.046875 0.40625 Z M 10.046875 0.40625 "/></g></g></g><g fill="#75485c" fill-opacity="1"><g transform="translate(78.025032, 82.276931)"><g><path d="M 9.90625 0.40625 C 7.46875 0.40625 5.671875 -0.253906 4.515625 -1.578125 C 3.359375 -2.898438 2.78125 -4.804688 2.78125 -7.296875 L 2.78125 -21.640625 L 8.21875 -21.640625 L 8.21875 -7.984375 C 8.21875 -6.660156 8.5 -5.691406 9.0625 -5.078125 C 9.632812 -4.472656 10.515625 -4.171875 11.703125 -4.171875 C 13.210938 -4.171875 14.382812 -4.664062 15.21875 -5.65625 C 16.0625 -6.644531 16.484375 -8.195312 16.484375 -10.3125 L 16.484375 -21.640625 L 21.90625 -21.640625 L 21.90625 0 L 16.6875 0 L 16.6875 -3.171875 L 16.28125 -3.28125 C 15.582031 -2.03125 14.734375 -1.101562 13.734375 -0.5 C 12.734375 0.101562 11.457031 0.40625 9.90625 0.40625 Z M 9.90625 0.40625 "/></g></g></g><g fill="#75485c" fill-opacity="1"><g transform="translate(103.047569, 82.276931)"><g><path d="M 8.984375 0.40625 C 7.035156 0.40625 5.546875 -0.117188 4.515625 -1.171875 C 3.492188 -2.222656 2.984375 -3.820312 2.984375 -5.96875 L 2.984375 -30.328125 L 8.421875 -30.328125 L 8.421875 -6.171875 C 8.421875 -4.859375 8.96875 -4.203125 10.0625 -4.203125 C 10.375 -4.203125 10.707031 -4.253906 11.0625 -4.359375 L 11.34375 -4.28125 L 11.828125 -0.09375 C 11.523438 0.0625 11.125 0.179688 10.625 0.265625 C 10.132812 0.359375 9.585938 0.40625 8.984375 0.40625 Z M 8.984375 0.40625 "/></g></g></g><g fill="#75485c" fill-opacity="1"><g transform="translate(115.480397, 82.276931)"><g><path d="M 5.828125 -24.21875 C 4.847656 -24.21875 4.050781 -24.515625 3.4375 -25.109375 C 2.820312 -25.710938 2.515625 -26.484375 2.515625 -27.421875 C 2.515625 -28.347656 2.820312 -29.109375 3.4375 -29.703125 C 4.050781 -30.296875 4.847656 -30.59375 5.828125 -30.59375 C 6.484375 -30.59375 7.066406 -30.457031 7.578125 -30.1875 C 8.085938 -29.914062 8.484375 -29.539062 8.765625 -29.0625 C 9.046875 -28.582031 9.1875 -28.035156 9.1875 -27.421875 C 9.1875 -26.804688 9.046875 -26.253906 8.765625 -25.765625 C 8.484375 -25.285156 8.085938 -24.90625 7.578125 -24.625 C 7.066406 -24.351562 6.484375 -24.21875 5.828125 -24.21875 Z M 3.125 0 L 3.125 -21.640625 L 8.546875 -21.640625 L 8.546875 0 Z M 3.125 0 "/></g></g></g><g fill="#75485c" fill-opacity="1"><g transform="translate(127.128819, 82.276931)"><g><path d="M 8.4375 0.40625 C 7.050781 0.40625 5.847656 0.148438 4.828125 -0.359375 C 3.804688 -0.867188 3.019531 -1.613281 2.46875 -2.59375 C 1.914062 -3.582031 1.640625 -4.769531 1.640625 -6.15625 C 1.640625 -7.4375 1.914062 -8.507812 2.46875 -9.375 C 3.019531 -10.25 3.867188 -10.960938 5.015625 -11.515625 C 6.171875 -12.078125 7.675781 -12.507812 9.53125 -12.8125 C 10.820312 -13.019531 11.804688 -13.25 12.484375 -13.5 C 13.160156 -13.75 13.613281 -14.03125 13.84375 -14.34375 C 14.082031 -14.65625 14.203125 -15.050781 14.203125 -15.53125 C 14.203125 -16.226562 13.957031 -16.757812 13.46875 -17.125 C 12.988281 -17.488281 12.1875 -17.671875 11.0625 -17.671875 C 9.863281 -17.671875 8.71875 -17.398438 7.625 -16.859375 C 6.539062 -16.328125 5.601562 -15.625 4.8125 -14.75 L 4.40625 -14.75 L 2.140625 -18.1875 C 3.234375 -19.394531 4.570312 -20.335938 6.15625 -21.015625 C 7.738281 -21.703125 9.46875 -22.046875 11.34375 -22.046875 C 14.207031 -22.046875 16.28125 -21.4375 17.5625 -20.21875 C 18.84375 -19.007812 19.484375 -17.285156 19.484375 -15.046875 L 19.484375 -5.65625 C 19.484375 -4.6875 19.90625 -4.203125 20.75 -4.203125 C 21.082031 -4.203125 21.40625 -4.257812 21.71875 -4.375 L 21.984375 -4.296875 L 22.375 -0.515625 C 22.082031 -0.316406 21.664062 -0.15625 21.125 -0.03125 C 20.59375 0.09375 20.003906 0.15625 19.359375 0.15625 C 18.066406 0.15625 17.054688 -0.0859375 16.328125 -0.578125 C 15.597656 -1.078125 15.078125 -1.859375 14.765625 -2.921875 L 14.359375 -2.96875 C 13.296875 -0.71875 11.320312 0.40625 8.4375 0.40625 Z M 10.15625 -3.640625 C 11.414062 -3.640625 12.421875 -4.0625 13.171875 -4.90625 C 13.921875 -5.75 14.296875 -6.925781 14.296875 -8.4375 L 14.296875 -10.625 L 13.921875 -10.703125 C 13.597656 -10.441406 13.171875 -10.222656 12.640625 -10.046875 C 12.109375 -9.867188 11.347656 -9.695312 10.359375 -9.53125 C 9.179688 -9.332031 8.332031 -8.992188 7.8125 -8.515625 C 7.300781 -8.046875 7.046875 -7.375 7.046875 -6.5 C 7.046875 -5.5625 7.316406 -4.847656 7.859375 -4.359375 C 8.410156 -3.878906 9.175781 -3.640625 10.15625 -3.640625 Z M 10.15625 -3.640625 "/></g></g></g><g fill="#9d5977" fill-opacity="1"><g transform="translate(53.88367, 118.340709)"><g><path d="M 12.703125 0.40625 C 10.722656 0.40625 8.957031 0.160156 7.40625 -0.328125 C 5.851562 -0.816406 4.5625 -1.457031 3.53125 -2.25 C 2.5 -3.050781 1.707031 -3.929688 1.15625 -4.890625 L 4.28125 -8.6875 L 4.765625 -8.6875 C 5.628906 -7.40625 6.722656 -6.382812 8.046875 -5.625 C 9.378906 -4.863281 10.929688 -4.484375 12.703125 -4.484375 C 14.222656 -4.484375 15.367188 -4.804688 16.140625 -5.453125 C 16.910156 -6.097656 17.296875 -6.976562 17.296875 -8.09375 C 17.296875 -8.78125 17.171875 -9.351562 16.921875 -9.8125 C 16.679688 -10.269531 16.269531 -10.660156 15.6875 -10.984375 C 15.113281 -11.304688 14.335938 -11.585938 13.359375 -11.828125 L 9.671875 -12.671875 C 7.097656 -13.253906 5.175781 -14.226562 3.90625 -15.59375 C 2.644531 -16.96875 2.015625 -18.742188 2.015625 -20.921875 C 2.015625 -22.546875 2.421875 -23.972656 3.234375 -25.203125 C 4.046875 -26.429688 5.222656 -27.382812 6.765625 -28.0625 C 8.316406 -28.75 10.175781 -29.09375 12.34375 -29.09375 C 14.550781 -29.09375 16.441406 -28.800781 18.015625 -28.21875 C 19.585938 -27.632812 20.921875 -26.738281 22.015625 -25.53125 L 19.203125 -21.6875 L 18.71875 -21.6875 C 17.90625 -22.539062 16.972656 -23.179688 15.921875 -23.609375 C 14.878906 -24.035156 13.6875 -24.25 12.34375 -24.25 C 10.78125 -24.25 9.59375 -23.972656 8.78125 -23.421875 C 7.976562 -22.867188 7.578125 -22.109375 7.578125 -21.140625 C 7.578125 -20.242188 7.859375 -19.523438 8.421875 -18.984375 C 8.992188 -18.453125 9.976562 -18.035156 11.375 -17.734375 L 15.140625 -16.953125 C 17.929688 -16.359375 19.953125 -15.359375 21.203125 -13.953125 C 22.460938 -12.546875 23.09375 -10.710938 23.09375 -8.453125 C 23.09375 -6.660156 22.703125 -5.097656 21.921875 -3.765625 C 21.148438 -2.441406 19.988281 -1.414062 18.4375 -0.6875 C 16.882812 0.0390625 14.972656 0.40625 12.703125 0.40625 Z M 12.703125 0.40625 "/></g></g></g><g fill="#9d5977" fill-opacity="1"><g transform="translate(78.514004, 118.340709)"><g><path d="M 12.609375 0.40625 C 10.515625 0.40625 8.664062 -0.0234375 7.0625 -0.890625 C 5.457031 -1.765625 4.203125 -3.039062 3.296875 -4.71875 C 2.390625 -6.40625 1.9375 -8.4375 1.9375 -10.8125 C 1.9375 -13.1875 2.390625 -15.21875 3.296875 -16.90625 C 4.203125 -18.59375 5.453125 -19.867188 7.046875 -20.734375 C 8.640625 -21.609375 10.460938 -22.046875 12.515625 -22.046875 C 17.078125 -22.046875 20 -20.390625 21.28125 -17.078125 L 17.5625 -14.421875 L 17.140625 -14.421875 C 16.703125 -15.441406 16.125 -16.195312 15.40625 -16.6875 C 14.695312 -17.1875 13.734375 -17.4375 12.515625 -17.4375 C 10.941406 -17.4375 9.71875 -16.894531 8.84375 -15.8125 C 7.96875 -14.726562 7.53125 -13.0625 7.53125 -10.8125 C 7.53125 -8.582031 7.972656 -6.921875 8.859375 -5.828125 C 9.753906 -4.742188 11.003906 -4.203125 12.609375 -4.203125 C 13.785156 -4.203125 14.78125 -4.515625 15.59375 -5.140625 C 16.414062 -5.773438 17.003906 -6.691406 17.359375 -7.890625 L 17.765625 -7.921875 L 21.640625 -5.8125 C 21.085938 -3.976562 20.066406 -2.484375 18.578125 -1.328125 C 17.097656 -0.171875 15.109375 0.40625 12.609375 0.40625 Z M 12.609375 0.40625 "/></g></g></g><g fill="#9d5977" fill-opacity="1"><g transform="translate(100.810732, 118.340709)"><g><path d="M 3.125 0 L 3.125 -30.328125 L 8.546875 -30.328125 L 8.546875 -18.8125 L 8.96875 -18.734375 C 9.6875 -19.796875 10.566406 -20.613281 11.609375 -21.1875 C 12.660156 -21.757812 13.921875 -22.046875 15.390625 -22.046875 C 20.171875 -22.046875 22.5625 -19.335938 22.5625 -13.921875 L 22.5625 0 L 17.125 0 L 17.125 -13.234375 C 17.125 -14.710938 16.828125 -15.785156 16.234375 -16.453125 C 15.648438 -17.117188 14.738281 -17.453125 13.5 -17.453125 C 11.976562 -17.453125 10.769531 -16.945312 9.875 -15.9375 C 8.988281 -14.925781 8.546875 -13.347656 8.546875 -11.203125 L 8.546875 0 Z M 3.125 0 "/></g></g></g><g fill="#9d5977" fill-opacity="1"><g transform="translate(126.147031, 118.340709)"><g><path d="M 8.4375 0.40625 C 7.050781 0.40625 5.847656 0.148438 4.828125 -0.359375 C 3.804688 -0.867188 3.019531 -1.613281 2.46875 -2.59375 C 1.914062 -3.582031 1.640625 -4.769531 1.640625 -6.15625 C 1.640625 -7.4375 1.914062 -8.507812 2.46875 -9.375 C 3.019531 -10.25 3.867188 -10.960938 5.015625 -11.515625 C 6.171875 -12.078125 7.675781 -12.507812 9.53125 -12.8125 C 10.820312 -13.019531 11.804688 -13.25 12.484375 -13.5 C 13.160156 -13.75 13.613281 -14.03125 13.84375 -14.34375 C 14.082031 -14.65625 14.203125 -15.050781 14.203125 -15.53125 C 14.203125 -16.226562 13.957031 -16.757812 13.46875 -17.125 C 12.988281 -17.488281 12.1875 -17.671875 11.0625 -17.671875 C 9.863281 -17.671875 8.71875 -17.398438 7.625 -16.859375 C 6.539062 -16.328125 5.601562 -15.625 4.8125 -14.75 L 4.40625 -14.75 L 2.140625 -18.1875 C 3.234375 -19.394531 4.570312 -20.335938 6.15625 -21.015625 C 7.738281 -21.703125 9.46875 -22.046875 11.34375 -22.046875 C 14.207031 -22.046875 16.28125 -21.4375 17.5625 -20.21875 C 18.84375 -19.007812 19.484375 -17.285156 19.484375 -15.046875 L 19.484375 -5.65625 C 19.484375 -4.6875 19.90625 -4.203125 20.75 -4.203125 C 21.082031 -4.203125 21.40625 -4.257812 21.71875 -4.375 L 21.984375 -4.296875 L 22.375 -0.515625 C 22.082031 -0.316406 21.664062 -0.15625 21.125 -0.03125 C 20.59375 0.09375 20.003906 0.15625 19.359375 0.15625 C 18.066406 0.15625 17.054688 -0.0859375 16.328125 -0.578125 C 15.597656 -1.078125 15.078125 -1.859375 14.765625 -2.921875 L 14.359375 -2.96875 C 13.296875 -0.71875 11.320312 0.40625 8.4375 0.40625 Z M 10.15625 -3.640625 C 11.414062 -3.640625 12.421875 -4.0625 13.171875 -4.90625 C 13.921875 -5.75 14.296875 -6.925781 14.296875 -8.4375 L 14.296875 -10.625 L 13.921875 -10.703125 C 13.597656 -10.441406 13.171875 -10.222656 12.640625 -10.046875 C 12.109375 -9.867188 11.347656 -9.695312 10.359375 -9.53125 C 9.179688 -9.332031 8.332031 -8.992188 7.8125 -8.515625 C 7.300781 -8.046875 7.046875 -7.375 7.046875 -6.5 C 7.046875 -5.5625 7.316406 -4.847656 7.859375 -4.359375 C 8.410156 -3.878906 9.175781 -3.640625 10.15625 -3.640625 Z M 7.59375 -24.5 C 6.757812 -24.5 6.082031 -24.753906 5.5625 -25.265625 C 5.039062 -25.773438 4.78125 -26.421875 4.78125 -27.203125 C 4.78125 -27.992188 5.039062 -28.640625 5.5625 -29.140625 C 6.082031 -29.648438 6.757812 -29.90625 7.59375 -29.90625 C 8.445312 -29.90625 9.132812 -29.65625 9.65625 -29.15625 C 10.175781 -28.65625 10.4375 -28.003906 10.4375 -27.203125 C 10.4375 -26.421875 10.175781 -25.773438 9.65625 -25.265625 C 9.132812 -24.753906 8.445312 -24.5 7.59375 -24.5 Z M 15.078125 -24.5 C 14.222656 -24.5 13.535156 -24.75 13.015625 -25.25 C 12.503906 -25.757812 12.25 -26.410156 12.25 -27.203125 C 12.25 -28.003906 12.503906 -28.65625 13.015625 -29.15625 C 13.535156 -29.65625 14.222656 -29.90625 15.078125 -29.90625 C 15.910156 -29.90625 16.585938 -29.648438 17.109375 -29.140625 C 17.628906 -28.640625 17.890625 -27.992188 17.890625 -27.203125 C 17.890625 -26.421875 17.628906 -25.773438 17.109375 -25.265625 C 16.585938 -24.753906 15.910156 -24.5 15.078125 -24.5 Z M 15.078125 -24.5 "/></g></g></g><g fill="#9d5977" fill-opacity="1"><g transform="translate(148.698633, 118.340709)"><g><path d="M 3.78125 0 L 3.78125 -17.34375 L 0.71875 -17.34375 L 0.71875 -21.65625 L 3.78125 -21.65625 C 3.5625 -22.570312 3.453125 -23.425781 3.453125 -24.21875 C 3.453125 -25.59375 3.765625 -26.765625 4.390625 -27.734375 C 5.015625 -28.710938 5.914062 -29.457031 7.09375 -29.96875 C 8.269531 -30.476562 9.671875 -30.734375 11.296875 -30.734375 C 13.691406 -30.734375 15.476562 -30.320312 16.65625 -29.5 L 15.375 -25.5 L 14.96875 -25.421875 C 14.15625 -25.992188 13.113281 -26.28125 11.84375 -26.28125 C 10.863281 -26.28125 10.128906 -26.039062 9.640625 -25.5625 C 9.148438 -25.09375 8.90625 -24.441406 8.90625 -23.609375 C 8.90625 -23.265625 8.925781 -22.941406 8.96875 -22.640625 C 9.019531 -22.347656 9.101562 -22.019531 9.21875 -21.65625 L 15.390625 -21.65625 L 15.390625 -17.34375 L 9.21875 -17.34375 L 9.21875 0 Z M 3.78125 0 "/></g></g></g><g fill="#9d5977" fill-opacity="1"><g transform="translate(164.79866, 118.340709)"><g><path d="M 3.78125 0 L 3.78125 -17.34375 L 0.71875 -17.34375 L 0.71875 -21.65625 L 3.78125 -21.65625 C 3.5625 -22.570312 3.453125 -23.425781 3.453125 -24.21875 C 3.453125 -25.59375 3.765625 -26.765625 4.390625 -27.734375 C 5.015625 -28.710938 5.914062 -29.457031 7.09375 -29.96875 C 8.269531 -30.476562 9.671875 -30.734375 11.296875 -30.734375 C 13.691406 -30.734375 15.476562 -30.320312 16.65625 -29.5 L 15.375 -25.5 L 14.96875 -25.421875 C 14.15625 -25.992188 13.113281 -26.28125 11.84375 -26.28125 C 10.863281 -26.28125 10.128906 -26.039062 9.640625 -25.5625 C 9.148438 -25.09375 8.90625 -24.441406 8.90625 -23.609375 C 8.90625 -23.265625 8.925781 -22.941406 8.96875 -22.640625 C 9.019531 -22.347656 9.101562 -22.019531 9.21875 -21.65625 L 15.390625 -21.65625 L 15.390625 -17.34375 L 9.21875 -17.34375 L 9.21875 0 Z M 3.78125 0 "/></g></g></g><g fill="#9d5977" fill-opacity="1"><g transform="translate(180.212183, 118.340709)"><g><path d="M 21.375 -9.59375 L 7.46875 -9.59375 C 7.625 -7.707031 8.160156 -6.335938 9.078125 -5.484375 C 9.992188 -4.628906 11.242188 -4.203125 12.828125 -4.203125 C 14.066406 -4.203125 15.070312 -4.429688 15.84375 -4.890625 C 16.613281 -5.359375 17.238281 -6.0625 17.71875 -7 L 18.125 -7 L 21.734375 -4.6875 C 21.023438 -3.164062 19.957031 -1.9375 18.53125 -1 C 17.101562 -0.0625 15.203125 0.40625 12.828125 0.40625 C 10.585938 0.40625 8.65625 -0.015625 7.03125 -0.859375 C 5.40625 -1.710938 4.148438 -2.976562 3.265625 -4.65625 C 2.378906 -6.332031 1.9375 -8.382812 1.9375 -10.8125 C 1.9375 -13.269531 2.398438 -15.34375 3.328125 -17.03125 C 4.265625 -18.71875 5.519531 -19.972656 7.09375 -20.796875 C 8.675781 -21.628906 10.457031 -22.046875 12.4375 -22.046875 C 15.5 -22.046875 17.84375 -21.234375 19.46875 -19.609375 C 21.09375 -17.992188 21.90625 -15.613281 21.90625 -12.46875 C 21.90625 -11.332031 21.867188 -10.453125 21.796875 -9.828125 Z M 16.71875 -13.109375 C 16.664062 -14.753906 16.28125 -15.953125 15.5625 -16.703125 C 14.851562 -17.453125 13.8125 -17.828125 12.4375 -17.828125 C 9.6875 -17.828125 8.070312 -16.253906 7.59375 -13.109375 Z M 16.71875 -13.109375 "/></g></g></g><g fill="#9d5977" fill-opacity="1"><g transform="translate(203.724739, 118.340709)"><g><path d="M 3.125 0 L 3.125 -21.640625 L 8.390625 -21.640625 L 8.390625 -18.421875 L 8.8125 -18.34375 C 9.332031 -19.539062 10.015625 -20.421875 10.859375 -20.984375 C 11.710938 -21.546875 12.75 -21.828125 13.96875 -21.828125 C 15.195312 -21.828125 16.128906 -21.617188 16.765625 -21.203125 L 15.84375 -16.515625 L 15.4375 -16.4375 C 15.082031 -16.582031 14.738281 -16.6875 14.40625 -16.75 C 14.082031 -16.8125 13.6875 -16.84375 13.21875 -16.84375 C 11.695312 -16.84375 10.535156 -16.3125 9.734375 -15.25 C 8.941406 -14.1875 8.546875 -12.476562 8.546875 -10.125 L 8.546875 0 Z M 3.125 0 "/></g></g></g></svg>