<svg xmlns="http://www.w3.org/2000/svg" fill="none" viewBox="0 0 25 24" id="Firebase">
  <path fill="#000000" fill-rule="evenodd" d="M5.51782 14.3985L10.3517 5.33492L8.19345 1.34825C7.96311 0.922792 7.32304 1.03989 7.25825 1.51933L5.51782 14.3985ZM20.1519 18.6755L12.7087 22.8623C12.5565 22.9479 12.3706 22.9479 12.2184 22.8623L5.03813 18.8234C4.74956 18.6611 4.69559 18.2682 4.9297 18.034L17.2914 5.6723C17.5761 5.38762 18.0633 5.53895 18.1366 5.9348L20.3985 18.1486C20.4374 18.3589 20.3383 18.5706 20.1519 18.6755ZM14.5145 7.03498L6.07996 15.4695L12.0407 4.29303C12.2252 3.94721 12.7177 3.93839 12.9144 4.27738L14.5145 7.03498Z" clip-rule="evenodd" class="color022639 svgShape"></path>
</svg>
