<svg xmlns="http://www.w3.org/2000/svg" xmlns:xlink="http://www.w3.org/1999/xlink" width="1080" zoomAndPan="magnify" viewBox="0 0 810 809.999993" height="1080" preserveAspectRatio="xMidYMid meet" version="1.0"><path fill="#000000" d="M 781.578125 370.097656 L 439.816406 28.332031 C 430.378906 18.722656 417.449219 13.480469 404.171875 13.480469 C 390.890625 13.480469 377.960938 18.722656 368.527344 28.160156 L 297.414062 99.097656 L 387.398438 189.082031 C 434.746094 173.183594 479.476562 218.4375 463.226562 265.4375 L 550.066406 352.277344 C 609.824219 331.660156 657 406.441406 612.09375 451.347656 C 565.792969 497.648438 489.4375 446.28125 514.246094 386.171875 L 433.347656 305.273438 L 433.347656 518.265625 C 477.554688 540.109375 472.3125 591.300781 449.25 614.367188 C 438.066406 625.550781 422.691406 632.015625 406.792969 632.015625 C 390.890625 632.015625 375.691406 625.722656 364.332031 614.367188 C 333.582031 583.613281 344.9375 532.417969 383.902344 516.519531 L 383.902344 301.605469 C 347.558594 286.753906 340.917969 247.964844 351.402344 222.980469 L 262.640625 134.042969 L 28.332031 368.351562 C 18.722656 377.960938 13.480469 390.714844 13.480469 403.996094 C 13.480469 417.273438 18.722656 430.203125 28.332031 439.640625 L 370.097656 781.578125 C 379.535156 791.015625 392.289062 796.257812 405.742188 796.257812 C 419.195312 796.257812 431.953125 791.015625 441.386719 781.578125 L 781.578125 441.386719 C 791.015625 431.953125 796.257812 419.023438 796.257812 405.742188 C 796.257812 392.464844 791.015625 379.535156 781.578125 370.097656 Z M 781.578125 370.097656 " fill-opacity="1" fill-rule="nonzero"/></svg>