<svg id="Capa_1" enable-background="new 0 0 512 512" height="512" viewBox="0 0 512 512" width="512" xmlns="http://www.w3.org/2000/svg"><g><path d="m0 256c0-141.385 114.615-256 256-256s256 114.615 256 256c0 81.321-37.918 153.786-97.039 200.68-2.565 2.035-103.577-31.573-158.961-31.573s-156.396 33.607-158.961 31.573c-59.121-46.894-97.039-119.359-97.039-200.68z" fill="#814ba3"/><path d="m463.085 256c0 114.37-92.715 207.085-207.085 207.085s-207.085-92.715-207.085-207.085 92.715-207.085 207.085-207.085 207.085 92.715 207.085 207.085z" fill="#935cb5"/><path d="m149.542 73.339c25.28-5.912 93.544 62.352 87.632 87.632-25.28 5.912-51.487.089-69.604-18.028s-23.94-44.324-18.028-69.604zm213.386-27.236c-25.28-5.912-93.544 62.352-87.632 87.632 25.28 5.912 51.487.089 69.604-18.028s23.94-44.323 18.028-69.604z" fill="#1fb480"/><path d="m149.542 73.339c25.28-5.912 51.487-.089 69.604 18.028s23.94 44.324 18.028 69.604c-25.28 5.912-93.544-62.352-87.632-87.632zm213.386-27.236c-25.28-5.912-51.487-.089-69.604 18.028s-23.94 44.324-18.028 69.604c25.28 5.912 93.544-62.351 87.632-87.632z" fill="#57bf93"/><path d="m323.607 97.735c-22.869 9.891-49.521 36.543-59.413 59.413-.194.45-.428.871-.694 1.261v100.724c0 4.142-3.358 7.5-7.5 7.5s-7.5-3.358-7.5-7.5v-74.276c-.079-.154-.154-.311-.224-.472-9.892-22.87-36.544-49.522-59.413-59.413-3.802-1.645-5.551-6.059-3.907-9.861s6.061-5.551 9.861-3.907c18.866 8.16 39.384 25.647 53.683 44.591v-122.043c0-4.142 3.358-7.5 7.5-7.5s7.5 3.358 7.5 7.5v95.434c14.317-19.184 35.079-36.968 54.153-45.217 3.802-1.645 8.217.105 9.861 3.907s-.105 8.215-3.907 9.859z" fill="#00a86d"/><path d="m263.332 79.763c-2.458 6.866-11.224 9.007-16.589 4.067-10.825-9.969-17.478-23.5-17.478-38.404 0-18.783 10.566-35.386 26.735-45.426 13.168 8.177 15.612 56.634 7.332 79.763z" fill="#ffea00"/><path d="m284.403 49.776c-2.316 14.903-11.431 28.195-23.891 36.38-5.884 3.865-13.821.561-15.225-6.337-4.876-23.955 5.303-72.934 19.674-79.036 14.435 12.404 22.327 30.433 19.442 48.993z" fill="#fff261"/><path d="m244.313 192.336c0 8.284-6.716 15-15 15h-47.015c-8.284 0-15-6.716-15-15s6.716-15 15-15h47.015c8.284 0 15 6.716 15 15z" fill="#a44f3e"/><path d="m344.685 193.061c-.38 8.068-7.33 14.275-15.407 14.275h-110.982c-8.077 0-15.027-6.207-15.407-14.275-.406-8.614 6.458-15.725 14.983-15.725h27.214c2.226 0 4.265-1.247 5.274-3.231 2.478-4.87 7.538-8.207 13.377-8.207h42.511c7.057 0 12.975 4.873 14.574 11.438h8.879c8.526 0 15.39 7.111 14.984 15.725z" fill="#bb5d4c"/><path d="m198.5 398.759c-38.66 0-70 31.34-70 70v6.198c-.66-.38-1.318-.762-1.974-1.148-.175-.103-.351 2.876-.526 2.773-10.122-5.978-19.796-12.633-28.961-19.903 5.723-32.903 34.421-57.92 68.961-57.92z" fill="#00a4fb"/><path d="m414.961 456.68c-17.826 14.139-37.58 25.954-58.803 34.985-.635.27-1.84-1.015-2.478-.75-3.567 1.484-7.174 2.889-10.82 4.214-.755.274-.943 2.099-1.702 2.366-26.64 9.394-55.302 14.505-85.158 14.505s-58.518-5.111-85.159-14.505c-.989-.349-1.594-3.922-2.577-4.282-3.315-1.215-6.598-2.497-9.847-3.844-.776-.322-1.804 2.625-2.577 2.296-10.266-4.375-20.316-9.456-29.841-15.082v-7.823c0-38.66 31.34-70 70-70h150c34.542-.001 63.239 25.016 68.962 57.92z" fill="#65befc"/><path d="m356.159 467.342v24.323c-4.923 2.095-9.925 4.04-15 5.83v-30.153c0-4.142 3.358-7.5 7.5-7.5s7.5 3.358 7.5 7.5zm-192.818-7.5c-4.142 0-7.5 3.358-7.5 7.5v24.323c4.923 2.095 9.925 4.04 15 5.83v-30.153c0-4.142-3.358-7.5-7.5-7.5z" fill="#00a4fb"/><path d="m171 273.759v10c0 13.807-11.193 25-25 25s-25-11.193-25-25v-10c0-13.807 11.193-25 25-25s25 11.193 25 25z" fill="#ffbd86"/><path d="m391 273.759v9.405c0 13.713-10.79 25.323-24.501 25.59-2.646.052-5.2-.308-7.604-1.019-12.254 32.332-39.309 57.384-72.895 66.883v33.517c0 16.347-12.816 30.164-29.157 30.613-16.953.465-30.843-13.14-30.843-29.989v-34.141c-46.17-13.059-80-55.508-80-105.859v-40c0-8.687 1.007-17.138 2.911-25.244 1.053-4.483 5.11-7.617 9.715-7.617h22.367l3.752 2.314c4.173 2.574 8.98 3.937 13.883 3.937h140.924c14.539 0 26.403 11.73 26.448 26.269 0 .113.001.227.001.341v20c13.806 0 24.999 11.193 24.999 25zm-245.002-25c-13.806.001-24.998 11.194-24.998 25v10c0 13.806 11.192 24.999 24.998 25-6.071-4.561-9.998-11.822-9.998-20v-20c0-8.178 3.927-15.439 9.998-20z" fill="#f6a96c"/><path d="m366 228.759v40c0 50.792-34.425 93.543-81.215 106.195-9.023 2.44-18.546 2.44-27.57 0-46.79-12.652-81.215-55.403-81.215-106.195v-40c0-11.446 1.749-22.484 4.993-32.861h172.381c4.605 0 8.662 3.133 9.715 7.617 1.904 8.106 2.911 16.558 2.911 25.244z" fill="#ffbd86"/><path d="m286.303 303.091c2.929 2.93 2.929 7.678 0 10.607-8.354 8.354-19.329 12.531-30.303 12.531s-21.949-4.177-30.303-12.531c-2.929-2.93-2.929-7.678 0-10.607 2.929-2.928 7.678-2.928 10.606 0 10.861 10.861 28.532 10.861 39.394 0 2.928-2.927 7.678-2.927 10.606 0zm-30.303-21.592c5.475 0 10.625-2.134 14.5-6.009 2.929-2.93 2.929-7.678 0-10.607-2.929-2.928-7.678-2.928-10.606 0-1.042 1.042-2.424 1.616-3.893 1.616s-2.851-.574-3.893-1.616c-2.929-2.928-7.678-2.928-10.606 0-2.929 2.93-2.929 7.678 0 10.607 3.873 3.876 9.023 6.009 14.498 6.009zm-21.554-61.042c-2.929-2.929-7.678-2.93-10.607-.001-4.874 4.873-12.804 4.873-17.678 0-2.93-2.928-7.677-2.929-10.607.001-2.929 2.929-2.928 7.678 0 10.606 5.361 5.36 12.403 8.041 19.445 8.041s14.084-2.681 19.445-8.041c2.93-2.929 2.931-7.678.002-10.606zm82 0c-2.929-2.929-7.678-2.93-10.607-.001-4.874 4.873-12.804 4.873-17.678 0-2.93-2.928-7.677-2.929-10.607.001-2.929 2.929-2.928 7.678 0 10.606 5.361 5.36 12.403 8.041 19.445 8.041s14.084-2.681 19.445-8.041c2.93-2.929 2.931-7.678.002-10.606z" fill="#ea9b58"/><path d="m334.223 170.944c.781.781.781 2.047 0 2.828l-13.767 13.767c-.781.781-2.047.781-2.828 0l-13.767-13.767c-.781-.781-.781-2.047 0-2.828l13.767-13.767c.781-.781 2.047-.781 2.828 0zm-46.279 19.978-11.172-11.172c-.781-.781-2.047-.781-2.828 0l-11.172 11.172c-.781.781-.781 2.047 0 2.828l11.172 11.172c.781.781 2.047.781 2.828 0l11.172-11.172c.781-.781.781-2.047 0-2.828z" fill="#a44f3e"/><path d="m425.053 173.923c0 4.142-3.358 7.5-7.5 7.5h-9.096v9.096c0 4.142-3.358 7.5-7.5 7.5s-7.5-3.358-7.5-7.5v-9.096h-9.096c-4.142 0-7.5-3.358-7.5-7.5s3.358-7.5 7.5-7.5h9.096v-9.096c0-4.142 3.358-7.5 7.5-7.5s7.5 3.358 7.5 7.5v9.096h9.096c4.142 0 7.5 3.358 7.5 7.5zm-316.393-49.981h-9.096v-9.096c0-4.142-3.358-7.5-7.5-7.5s-7.5 3.358-7.5 7.5v9.096h-9.096c-4.142 0-7.5 3.358-7.5 7.5s3.358 7.5 7.5 7.5h9.096v9.096c0 4.142 3.358 7.5 7.5 7.5s7.5-3.358 7.5-7.5v-9.096h9.096c4.142 0 7.5-3.358 7.5-7.5s-3.358-7.5-7.5-7.5z" fill="#fff"/></g></svg>