<svg id="Layer_1" enable-background="new 0 0 1700 1700" height="512" viewBox="0 0 1700 1700" width="512" xmlns="http://www.w3.org/2000/svg"><g><g><g id="XMLID_1_" fill="rgb(0,0,0)"><path d="m1580.28 523.8-107.01 149.73-107.01-149.73h43.4c4.64 0 9.07-1.89 12.28-5.23 3.2-3.35 4.91-7.85 4.72-12.48-3.06-75-34.67-145.11-88.98-197.39-54.49-52.43-126.03-81.32-201.47-81.32-69.46 0-136.75 24.99-189.45 70.37-47.17 40.6-80.03 95.11-93.87 155.07-29.75-8.6-60.14-14.68-91.01-18.19 4.99-22.46 12.05-44.53 21.07-65.83 19.32-45.67 46.96-86.67 82.12-121.84 35.2-35.2 76.2-62.83 121.87-82.14 47.32-20.02 97.54-30.18 149.27-30.18s101.95 10.16 149.28 30.18c45.68 19.32 86.67 46.96 121.85 82.14 35.18 35.17 62.8 76.16 82.13 121.84 18.61 44 28.71 90.58 30.03 138.46.26 9.21 7.79 16.55 17.01 16.55h43.77z"/><path d="m1180.79 785.1c27.36 64.69 41.24 133.35 41.24 204.05 0 70.71-13.88 139.36-41.24 204.05-23.36 55.21-55.71 105.58-96.18 149.74-.03.03-.06.06-.1.1-5.04 5.52-10.41 11.13-15.99 16.72-4.87 4.87-9.94 9.75-15.08 14.49-38.99 36.06-83.04 65.84-130.91 88.55-6.78 3.21-13.7 6.32-20.58 9.23l-.71.3c-.01 0-.02.01-.03.01-38.79 16.34-80.36 24.63-123.53 24.63h-21.69-673.99v-125.51h645.11c51.19 0 100.96-9.91 147.92-29.46 45.43-18.9 86.33-45.97 121.57-80.46 72.61-71.07 113.3-165.91 114.58-267.03.03-1.77.04-3.56.04-5.35 0-55.78-10.93-109.91-32.49-160.88-20.82-49.22-50.62-93.42-88.58-131.37-37.95-37.95-82.14-67.75-131.37-88.57-50.97-21.55-105.09-32.49-160.88-32.49s-109.92 10.93-160.89 32.49c-49.21 20.82-93.41 50.62-131.36 88.57s-67.76 82.14-88.57 131.37c-21.55 50.97-32.49 105.09-32.49 160.88 0 9.4 7.61 17.01 17.01 17.01h58.74l-131.13 183.53-131.15-183.54h58.73c9.4 0 17.01-7.61 17.01-17.01 0-70.67 13.88-139.32 41.25-204.05 26.42-62.44 64.19-118.48 112.28-166.54 48.06-48.1 104.09-85.87 166.54-112.27 64.68-27.37 133.35-41.25 204.05-41.25 14.15 0 28.22.55 42.18 1.67 40.99 3.24 81.16 11.26 120.09 23.96.26.1.52.18.79.26 13.82 4.53 27.49 9.66 40.98 15.37 62.42 26.38 118.46 64.16 166.56 112.27 48.09 48.08 85.86 104.1 112.27 166.53z"/><path d="m1618 1434.21-183.53 131.15v-51.39c0-9.4-7.61-17.01-17.01-17.01h-487.72c2.47-1.12 4.93-2.26 7.37-3.42 50.99-24.18 97.9-55.9 139.44-94.31 5.46-5.04 10.85-10.23 16.04-15.42 4.1-4.1 8.12-8.25 11.98-12.36h312.89c9.4 0 17.01-7.61 17.01-17.01v-51.39z"/></g></g></g></svg>