<svg id="Glyph" viewBox="0 0 64 64" xmlns="http://www.w3.org/2000/svg"><path d="m55.97 7.03981h-47.94a4.03734 4.03734 0 0 0 -4.03 4.03v26.34h56v-26.34a4.03734 4.03734 0 0 0 -4.03-4.03zm-36.12 18.37c-.09409 5.26857-8.24517 5.289-8.34.00992v-6.37992a1.0002 1.0002 0 0 1 2 .00007v6.37994c-.00818 2.62042 4.35044 2.61236 4.34-.01008v-6.3999a1 1 0 0 1 2 0zm9.83-5.81995-3.1 4.28 2.67 3.94a1.00146 1.00146 0 0 1 -1.66 1.11994l-2.26-3.33991-2.44 3.37a1.00627 1.00627 0 0 1 -1.4.22.99623.99623 0 0 1 -.22-1.4l2.87-3.95-2.89-4.26a1.00407 1.00407 0 0 1 1.66-1.13l2.48 3.66 2.67-3.68a.9994.9994 0 0 1 1.62 1.16997zm9.44-3.07-7.32 15.33a1.00213 1.00213 0 0 1 -1.81-.86l7.32-15.33a1.0023 1.0023 0 0 1 1.81.85999zm9.54 8.89c-.09408 5.26857-8.24516 5.289-8.34.00992v-6.37997a1.0002 1.0002 0 0 1 2 .00007v6.37994c-.00067 2.62072 4.34967 2.61135 4.33995-.01007v-6.39991a1 1 0 1 1 2 0zm3.83 2.96a1.00011 1.00011 0 0 1 -2-.00005v-9.35997a1.00017 1.00017 0 0 1 2 .00006z"/><path d="m6 39.40981h-2v2.72a4.03733 4.03733 0 0 0 4.03 4.03h19.59c.11 2.38-3.87 6.56-7.03 9.01a.99742.99742 0 0 0 .61 1.79h21.6a1.011 1.011 0 0 0 .57995-1.82c-.06994-.05-6.24994-4.5-6.74994-8.98h19.33999a4.03733 4.03733 0 0 0 4.03-4.03v-2.72zm23.48 1.09h4.74a1.00011 1.00011 0 0 1 0 2h-4.74a1.00011 1.00011 0 0 1 0-1.99998z"/></svg>